<svg version="1.1" viewBox="0.0 0.0 404.98950131233596 247.14435695538057" fill="none" stroke="none" stroke-linecap="square" stroke-miterlimit="10" xmlns:xlink="http://www.w3.org/1999/xlink" xmlns="http://www.w3.org/2000/svg"><clipPath id="p.0"><path d="m0 0l404.9895 0l0 247.14436l-404.9895 0l0 -247.14436z" clip-rule="nonzero"/></clipPath><g clip-path="url(#p.0)"><path fill="#000000" fill-opacity="0.0" d="m0 0l404.9895 0l0 247.14436l-404.9895 0z" fill-rule="evenodd"/><path fill="#6aa84f" d="m83.04439 32.74603l0 -9.248034l0 0c0 -3.972536 3.220375 -7.192913 7.192917 -7.192913l31.90551 0c1.9076767 0 3.7372208 0.75782394 5.0861588 2.1067562c1.348938 1.3489323 2.1067505 3.1784782 2.1067505 5.086157l0 1.0275593l2.0551147 0l-4.1102295 4.110237l-4.110237 -4.110237l2.0551147 0l0 -1.0275593c0 -1.7025146 -1.3801575 -3.082676 -3.082672 -3.082676l-31.90551 0l0 0c-1.7025223 0 -3.0826797 1.3801613 -3.0826797 3.082676l0 9.248034z" fill-rule="evenodd"/><path fill="#e06666" d="m115.80971 55.034515l0 0c0 -17.27303 14.002563 -31.275589 31.275589 -31.275589l0 0c8.294815 0 16.249878 3.2950974 22.115189 9.160408c5.8653107 5.8653107 9.1604 13.820381 9.1604 22.115181l0 0c0 17.273033 -14.002548 31.275589 -31.275589 31.275589l0 0c-17.273026 0 -31.275589 -14.002556 -31.275589 -31.275589z" fill-rule="evenodd"/><path fill="#000000" d="m144.69398 56.423264l0 5.53125l-1.546875 0l0 -13.3125l3.65625 0q2.453125 0 3.625 0.9375q1.171875 0.9375 1.171875 2.8125q0 2.640625 -2.6875 3.578125l3.625 5.984375l-1.84375 0l-3.21875 -5.53125l-2.78125 0zm0 -1.34375l2.125 0q1.640625 0 2.40625 -0.640625q0.765625 -0.65625 0.765625 -1.953125q0 -1.328125 -0.78125 -1.90625q-0.78125 -0.578125 -2.5 -0.578125l-2.015625 0l0 5.078125z" fill-rule="nonzero"/><path fill="#6fa8dc" d="m275.63602 148.95128l0 0c0 2.8766632 9.328003 5.208664 20.834656 5.208664c11.506653 0 20.834625 -2.3320007 20.834625 -5.208664l0 45.015747c0 2.8766632 -9.327972 5.208664 -20.834625 5.208664c-11.506653 0 -20.834656 -2.3320007 -20.834656 -5.208664z" fill-rule="evenodd"/><path fill="#a8caea" d="m275.63602 148.95128l0 0c0 -2.8766632 9.328003 -5.208664 20.834656 -5.208664c11.506653 0 20.834625 2.3320007 20.834625 5.208664l0 0c0 2.8766632 -9.327972 5.208664 -20.834625 5.208664c-11.506653 0 -20.834656 -2.3320007 -20.834656 -5.208664z" fill-rule="evenodd"/><path fill="#000000" fill-opacity="0.0" d="m317.3053 148.95128l0 0c0 2.8766632 -9.327972 5.208664 -20.834625 5.208664c-11.506653 0 -20.834656 -2.3320007 -20.834656 -5.208664l0 0c0 -2.8766632 9.328003 -5.208664 20.834656 -5.208664c11.506653 0 20.834625 2.3320007 20.834625 5.208664l0 45.015747c0 2.8766632 -9.327972 5.208664 -20.834625 5.208664c-11.506653 0 -20.834656 -2.3320007 -20.834656 -5.208664l0 -45.015747" fill-rule="evenodd"/><path fill="#000000" d="m290.21762 180.98349l5.125 -13.359375l1.90625 0l5.46875 13.359375l-2.015625 0l-1.546875 -4.046875l-5.59375 0l-1.46875 4.046875l-1.875 0zm3.859375 -5.484375l4.53125 0l-1.40625 -3.703125q-0.625 -1.6875 -0.9375 -2.765625q-0.265625 1.28125 -0.71875 2.546875l-1.46875 3.921875z" fill-rule="nonzero"/><path fill="#ffd966" d="m265.19507 55.034515l0 0c0 -17.27303 14.002563 -31.275589 31.275604 -31.275589l0 0c8.2948 0 16.249878 3.2950974 22.115173 9.160408c5.865326 5.8653107 9.1604 13.820381 9.1604 22.115181l0 0c0 17.273033 -14.002563 31.275589 -31.275574 31.275589l0 0c-17.27304 0 -31.275604 -14.002556 -31.275604 -31.275589z" fill-rule="evenodd"/><path fill="#000000" d="m290.52368 56.423264l0 5.53125l-1.546875 0l0 -13.3125l3.65625 0q2.453125 0 3.625 0.9375q1.171875 0.9375 1.171875 2.8125q0 2.640625 -2.6875 3.578125l3.625 5.984375l-1.84375 0l-3.21875 -5.53125l-2.78125 0zm0 -1.34375l2.125 0q1.640625 0 2.40625 -0.640625q0.765625 -0.65625 0.765625 -1.953125q0 -1.328125 -0.78125 -1.90625q-0.78125 -0.578125 -2.5 -0.578125l-2.015625 0l0 5.078125z" fill-rule="nonzero"/><path fill="#000000" d="m305.16568 64.50139q0 2.296875 -0.71875 3.4375q-0.71875 1.140625 -2.21875 1.140625q-1.4375 0 -2.1875 -1.15625q-0.734375 -1.171875 -0.734375 -3.421875q0 -2.3125 0.71875 -3.4375q0.71875 -1.125 2.203125 -1.125q1.4375 0 2.1875 1.171875q0.75 1.171875 0.75 3.390625zm-4.84375 0q0 1.9375 0.453125 2.828125q0.453125 0.875 1.453125 0.875q1.015625 0 1.453125 -0.890625q0.453125 -0.890625 0.453125 -2.8125q0 -1.90625 -0.453125 -2.796875q-0.4375 -0.890625 -1.453125 -0.890625q-1.0 0 -1.453125 0.875q-0.453125 0.875 -0.453125 2.8125z" fill-rule="nonzero"/><path fill="#ffd966" d="m290.83286 94.177l5.6378174 -5.6377945l5.637787 5.6377945l-2.8189087 0l0 47.338577l-5.637787 0l0 -47.338577z" fill-rule="evenodd"/><path fill="#6aa84f" d="m258.98605 171.39728l-5.685028 5.6952972l0 -2.8425293l-64.17323 0.115737915l0 -5.6850433l64.17323 -0.115737915l0 -2.842514z" fill-rule="evenodd"/><path fill="#000000" fill-opacity="0.0" d="m187.16187 138.78923l100.566925 0l0 21.259857l-100.566925 0z" fill-rule="evenodd"/><path fill="#000000" d="m197.17749 160.58923l0 -9.546875l1.296875 0l5.015625 7.5l0 -7.5l1.203125 0l0 9.546875l-1.296875 0l-5.015625 -7.5l0 7.5l-1.203125 0zm9.047028 -3.453125q0 -1.921875 1.078125 -2.84375q0.890625 -0.765625 2.171875 -0.765625q1.421875 0 2.328125 0.9375q0.90625 0.921875 0.90625 2.578125q0 1.328125 -0.40625 2.09375q-0.390625 0.765625 -1.15625 1.1875q-0.765625 0.421875 -1.671875 0.421875q-1.453125 0 -2.359375 -0.921875q-0.890625 -0.9375 -0.890625 -2.6875zm1.203125 0q0 1.328125 0.578125 1.984375q0.59375 0.65625 1.46875 0.65625q0.875 0 1.453125 -0.65625q0.578125 -0.671875 0.578125 -2.03125q0 -1.28125 -0.59375 -1.9375q-0.578125 -0.65625 -1.4375 -0.65625q-0.875 0 -1.46875 0.65625q-0.578125 0.65625 -0.578125 1.984375zm9.209351 2.40625l0.171875 1.03125q-0.5 0.109375 -0.890625 0.109375q-0.640625 0 -1.0 -0.203125q-0.34375 -0.203125 -0.484375 -0.53125q-0.140625 -0.328125 -0.140625 -1.390625l0 -3.96875l-0.859375 0l0 -0.90625l0.859375 0l0 -1.71875l1.171875 -0.703125l0 2.421875l1.171875 0l0 0.90625l-1.171875 0l0 4.046875q0 0.5 0.046875 0.640625q0.0625 0.140625 0.203125 0.234375q0.140625 0.078125 0.40625 0.078125q0.203125 0 0.515625 -0.046875zm1.1561127 -7.140625l0 -1.359375l1.171875 0l0 1.359375l-1.171875 0zm0 8.1875l0 -6.90625l1.171875 0l0 6.90625l-1.171875 0zm3.226715 0l0 -6.0l-1.03125 0l0 -0.90625l1.03125 0l0 -0.734375q0 -0.703125 0.125 -1.046875q0.171875 -0.453125 0.59375 -0.734375q0.421875 -0.28125 1.203125 -0.28125q0.484375 0 1.09375 0.109375l-0.1875 1.03125q-0.359375 -0.0625 -0.6875 -0.0625q-0.53125 0 -0.75 0.234375q-0.21875 0.21875 -0.21875 0.84375l0 0.640625l1.34375 0l0 0.90625l-1.34375 0l0 6.0l-1.171875 0zm3.3748627 2.65625l-0.125 -1.09375q0.375 0.109375 0.65625 0.109375q0.390625 0 0.625 -0.140625q0.234375 -0.125 0.390625 -0.359375q0.109375 -0.171875 0.359375 -0.875q0.03125 -0.09375 0.109375 -0.28125l-2.625 -6.921875l1.265625 0l1.4375 4.0q0.28125 0.765625 0.5 1.59375q0.203125 -0.796875 0.46875 -1.578125l1.484375 -4.015625l1.171875 0l-2.625 7.015625q-0.421875 1.140625 -0.65625 1.578125q-0.3125 0.578125 -0.71875 0.84375q-0.40625 0.28125 -0.96875 0.28125q-0.328125 0 -0.75 -0.15625z" fill-rule="nonzero"/><path fill="#6fa8dc" d="m126.250656 151.99852l0 0c0 2.8766632 9.327988 5.208664 20.83464 5.208664c11.506668 0 20.834656 -2.3320007 20.834656 -5.208664l0 45.015747c0 2.8766785 -9.327988 5.208664 -20.834656 5.208664c-11.506653 0 -20.83464 -2.3319855 -20.83464 -5.208664z" fill-rule="evenodd"/><path fill="#a8caea" d="m126.250656 151.99852l0 0c0 -2.8766632 9.327988 -5.2086487 20.83464 -5.2086487c11.506668 0 20.834656 2.3319855 20.834656 5.2086487l0 0c0 2.8766632 -9.327988 5.208664 -20.834656 5.208664c-11.506653 0 -20.83464 -2.3320007 -20.83464 -5.208664z" fill-rule="evenodd"/><path fill="#000000" fill-opacity="0.0" d="m167.91995 151.99852l0 0c0 2.8766632 -9.327988 5.208664 -20.834656 5.208664c-11.506653 0 -20.83464 -2.3320007 -20.83464 -5.208664l0 0c0 -2.8766632 9.327988 -5.2086487 20.83464 -5.2086487c11.506668 0 20.834656 2.3319855 20.834656 5.2086487l0 45.015747c0 2.8766785 -9.327988 5.208664 -20.834656 5.208664c-11.506653 0 -20.83464 -2.3319855 -20.83464 -5.208664l0 -45.015747" fill-rule="evenodd"/><path fill="#000000" d="m137.20639 182.97073l0 -11.453125l3.953125 0q1.328125 0 2.03125 0.15625q0.984375 0.234375 1.6875 0.828125q0.90625 0.765625 1.34375 1.953125q0.453125 1.1875 0.453125 2.71875q0 1.3125 -0.3125 2.328125q-0.296875 1.0 -0.78125 1.65625q-0.46875 0.65625 -1.03125 1.046875q-0.5625 0.375 -1.375 0.578125q-0.796875 0.1875 -1.828125 0.1875l-4.140625 0zm1.515625 -1.359375l2.453125 0q1.125 0 1.765625 -0.203125q0.65625 -0.21875 1.03125 -0.59375q0.546875 -0.546875 0.84375 -1.453125q0.296875 -0.90625 0.296875 -2.203125q0 -1.796875 -0.59375 -2.765625q-0.578125 -0.96875 -1.421875 -1.296875q-0.609375 -0.234375 -1.96875 -0.234375l-2.40625 0l0 8.75zm9.9765625 1.359375l0 -11.453125l4.296875 0q1.3125 0 2.109375 0.34375q0.796875 0.34375 1.234375 1.078125q0.453125 0.71875 0.453125 1.5q0 0.734375 -0.40625 1.390625q-0.390625 0.640625 -1.1875 1.046875q1.03125 0.296875 1.59375 1.03125q0.5625 0.734375 0.5625 1.734375q0 0.8125 -0.34375 1.5q-0.34375 0.6875 -0.84375 1.0625q-0.5 0.375 -1.25 0.578125q-0.75 0.1875 -1.84375 0.1875l-4.375 0zm1.515625 -6.640625l2.484375 0q1.0 0 1.4375 -0.140625q0.578125 -0.171875 0.875 -0.5625q0.296875 -0.40625 0.296875 -1.0q0 -0.578125 -0.28125 -1.0q-0.265625 -0.4375 -0.78125 -0.59375q-0.5 -0.171875 -1.734375 -0.171875l-2.296875 0l0 3.46875zm0 5.28125l2.859375 0q0.734375 0 1.03125 -0.046875q0.515625 -0.09375 0.859375 -0.3125q0.359375 -0.21875 0.578125 -0.640625q0.234375 -0.421875 0.234375 -0.96875q0 -0.640625 -0.328125 -1.109375q-0.328125 -0.46875 -0.90625 -0.65625q-0.578125 -0.203125 -1.671875 -0.203125l-2.65625 0l0 3.9375z" fill-rule="nonzero"/><path fill="#980000" d="m142.93832 94.98672l5.637787 -5.6377945l5.637802 5.6377945l-2.8188934 0l0 47.338585l-5.637802 0l0 -47.338585z" fill-rule="evenodd"/><path fill="#ffd966" d="m35.998688 55.034515l0 0c0 -17.27303 14.00256 -31.275589 31.275589 -31.275589l0 0c8.294807 0 16.24987 3.2950974 22.115181 9.160408c5.8653107 5.8653107 9.160408 13.820381 9.160408 22.115181l0 0c0 17.273033 -14.002556 31.275589 -31.275589 31.275589l0 0c-17.27303 0 -31.275589 -14.002556 -31.275589 -31.275589z" fill-rule="evenodd"/><path fill="#000000" d="m61.327282 56.423264l0 5.53125l-1.546875 0l0 -13.3125l3.65625 0q2.4531212 0 3.6249962 0.9375q1.171875 0.9375 1.171875 2.8125q0 2.640625 -2.6875 3.578125l3.625 5.984375l-1.84375 0l-3.21875 -5.53125l-2.7812462 0zm0 -1.34375l2.125 0q1.6406212 0 2.4062462 -0.640625q0.765625 -0.65625 0.765625 -1.953125q0 -1.328125 -0.78125 -1.90625q-0.78125 -0.578125 -2.4999962 -0.578125l-2.015625 0l0 5.078125z" fill-rule="nonzero"/><path fill="#000000" d="m75.96928 64.50139q0 2.296875 -0.71875 3.4375q-0.71875 1.140625 -2.21875 1.140625q-1.4375 0 -2.1875 -1.15625q-0.734375 -1.171875 -0.734375 -3.421875q0 -2.3125 0.71875 -3.4375q0.71875 -1.125 2.203125 -1.125q1.4375 0 2.1875 1.171875q0.75 1.171875 0.75 3.390625zm-4.84375 0q0 1.9375 0.453125 2.828125q0.453125 0.875 1.453125 0.875q1.015625 0 1.453125 -0.890625q0.453125 -0.890625 0.453125 -2.8125q0 -1.90625 -0.453125 -2.796875q-0.4375 -0.890625 -1.453125 -0.890625q-1.0 0 -1.453125 0.875q-0.453125 0.875 -0.453125 2.8125z" fill-rule="nonzero"/><path fill="#000000" fill-opacity="0.0" d="m75.0457 -7.7132897l182.04726 0l0 21.228346l-182.04726 0z" fill-rule="evenodd"/><path fill="#000000" d="m89.436325 11.555459l1.15625 0.15625q-0.1875 1.1875 -0.96875 1.859375q-0.78125 0.671875 -1.921875 0.671875q-1.40625 0 -2.28125 -0.921875q-0.859375 -0.9375 -0.859375 -2.65625q0 -1.125 0.375 -1.96875q0.375 -0.8437495 1.125 -1.2499995q0.765625 -0.421875 1.65625 -0.421875q1.125 0 1.84375 0.578125q0.71875 0.5624995 0.921875 1.6093745l-1.140625 0.171875q-0.171875 -0.703125 -0.59375 -1.046875q-0.40625 -0.35937452 -0.984375 -0.35937452q-0.890625 0 -1.453125 0.6406245q-0.546875 0.640625 -0.546875 2.0q0 1.40625 0.53125 2.03125q0.546875 0.625 1.40625 0.625q0.6875 0 1.140625 -0.421875q0.46875 -0.421875 0.59375 -1.296875zm2.1484375 2.53125l0 -9.546875l1.171875 0l0 3.421875q0.828125 -0.9375 2.078125 -0.9375q0.765625 0 1.328125 0.296875q0.5625 0.296875 0.8125 0.8437495q0.25 0.53125 0.25 1.546875l0 4.375l-1.171875 0l0 -4.375q0 -0.890625 -0.390625 -1.28125q-0.375 -0.40625 -1.078125 -0.40625q-0.515625 0 -0.984375 0.28125q-0.453125 0.265625 -0.65625 0.734375q-0.1875 0.453125 -0.1875 1.265625l0 3.78125l-1.171875 0zm11.928101 -0.859375q-0.65625 0.5625 -1.265625 0.796875q-0.59375 0.21875 -1.28125 0.21875q-1.140625 0 -1.75 -0.546875q-0.609375 -0.5625 -0.609375 -1.4375q0 -0.5 0.21875 -0.921875q0.234375 -0.421875 0.609375 -0.671875q0.375 -0.25 0.84375 -0.390625q0.34375 -0.078125 1.046875 -0.171875q1.421875 -0.171875 2.09375 -0.40625q0 -0.234375 0 -0.296875q0 -0.71875 -0.328125 -1.015625q-0.453125 -0.39062452 -1.34375 -0.39062452q-0.8125 0 -1.21875 0.29687452q-0.390625 0.28125 -0.578125 1.015625l-1.140625 -0.15625q0.15625 -0.734375 0.515625 -1.1874995q0.359375 -0.453125 1.03125 -0.6875q0.671875 -0.25 1.5625 -0.25q0.890625 0 1.4375 0.203125q0.5625 0.203125 0.8125 0.53125q0.265625 0.31249952 0.375 0.7968745q0.046875 0.296875 0.046875 1.078125l0 1.5625q0 1.625 0.078125 2.0625q0.078125 0.4375 0.296875 0.828125l-1.21875 0q-0.1875 -0.359375 -0.234375 -0.859375zm-0.09375 -2.609375q-0.640625 0.265625 -1.921875 0.4375q-0.71875 0.109375 -1.015625 0.25q-0.296875 0.125 -0.46875 0.375q-0.15625 0.25 -0.15625 0.546875q0 0.46875 0.34375 0.78125q0.359375 0.3125 1.046875 0.3125q0.671875 0 1.203125 -0.296875q0.53125 -0.296875 0.78125 -0.8125q0.1875 -0.390625 0.1875 -1.171875l0 -0.421875zm2.9906006 3.46875l0 -6.9062495l1.0625 0l0 0.9843745q0.75 -1.1406245 2.1875 -1.1406245q0.625 0 1.15625 0.21875q0.53125 0.21875 0.78125 0.59375q0.265625 0.35937452 0.375 0.8593745q0.0625 0.328125 0.0625 1.140625l0 4.25l-1.171875 0l0 -4.203125q0 -0.71875 -0.140625 -1.0625q-0.140625 -0.359375 -0.484375 -0.5625q-0.34375 -0.21875 -0.8125 -0.21875q-0.75 0 -1.296875 0.46875q-0.546875 0.46875 -0.546875 1.796875l0 3.78125l-1.171875 0zm7.1937256 0.578125l1.140625 0.15625q0.078125 0.53125 0.40625 0.78125q0.4375 0.3125 1.1875 0.3125q0.8125 0 1.25 -0.328125q0.453125 -0.3125 0.609375 -0.90625q0.09375 -0.359375 0.078125 -1.5q-0.765625 0.90625 -1.90625 0.90625q-1.4375 0 -2.21875 -1.03125q-0.78125 -1.03125 -0.78125 -2.46875q0 -0.984375 0.359375 -1.8125q0.359375 -0.8437495 1.03125 -1.2968745q0.6875 -0.453125 1.609375 -0.453125q1.21875 0 2.015625 0.9843745l0 -0.8281245l1.078125 0l0 5.9687495q0 1.609375 -0.328125 2.28125q-0.328125 0.68750095 -1.046875 1.078126q-0.703125 0.390625 -1.75 0.390625q-1.234375 0 -2.0 -0.5625q-0.75 -0.56250095 -0.734375 -1.671876zm0.984375 -4.15625q0 1.359375 0.53125 1.984375q0.546875 0.625 1.359375 0.625q0.796875 0 1.34375 -0.625q0.546875 -0.625 0.546875 -1.953125q0 -1.265625 -0.5625 -1.90625q-0.5625 -0.6406245 -1.359375 -0.6406245q-0.765625 0 -1.3125 0.6406245q-0.546875 0.625 -0.546875 1.875zm11.381226 1.359375l1.203125 0.140625q-0.28125 1.0625 -1.0625 1.65625q-0.765625 0.578125 -1.96875 0.578125q-1.515625 0 -2.40625 -0.9375q-0.890625 -0.9375 -0.890625 -2.609375q0 -1.75 0.890625 -2.7031245q0.90625 -0.96875 2.34375 -0.96875q1.390625 0 2.265625 0.9375q0.875 0.9374995 0.875 2.6562495q0 0.109375 0 0.3125l-5.15625 0q0.0625 1.140625 0.640625 1.75q0.578125 0.59375 1.4375 0.59375q0.65625 0 1.109375 -0.328125q0.453125 -0.34375 0.71875 -1.078125zm-3.84375 -1.90625l3.859375 0q-0.078125 -0.859375 -0.4375 -1.296875q-0.5625 -0.6874995 -1.453125 -0.6874995q-0.8125 0 -1.359375 0.5468745q-0.546875 0.53125 -0.609375 1.4375z" fill-rule="nonzero"/><path fill="#6aa84f" d="m198.01248 73.752785l1.9220581 7.8081055l1.4707184 -2.4323425l61.474014 37.204437l2.9414368 -4.864685l-61.474014 -37.204445l1.4707184 -2.4323425z" fill-rule="evenodd"/><path fill="#000000" fill-opacity="0.0" d="m210.3441 47.12433l74.43916 45.009727l-10.983551 18.165092l-74.43916 -45.00972z" fill-rule="evenodd"/><path fill="#000000" d="m207.66179 70.97773l4.939743 -8.169563l3.6234894 2.1909485q1.0830383 0.65486145 1.5071716 1.2217178q0.44558716 0.56157684 0.44030762 1.325264q0.008087158 0.7717743 -0.39614868 1.4403152q-0.5255127 0.8691025 -1.4508972 1.1312332q-0.91729736 0.24876404 -2.1909485 -0.30223846q0.29852295 0.472641 0.40455627 0.81064606q0.20925903 0.7108307 0.24098206 1.6247101l0.07524109 3.0765305l-1.3504486 -0.81655884l-0.056274414 -2.352951q-0.036697388 -1.0264435 -0.10977173 -1.6001434q-0.05970764 -0.5656128 -0.21673584 -0.8796768q-0.14364624 -0.30596924 -0.35198975 -0.504982q-0.16293335 -0.15329742 -0.57743835 -0.40392303l-1.2568512 -0.75995636l-2.1909485 3.6234894l-1.0830383 -0.65486145zm3.83992 -3.9045868l2.3265228 1.4067383q0.7353821 0.44465637 1.2388153 0.5482025q0.5115051 0.090171814 0.9275665 -0.114738464q0.42941284 -0.19683075 0.6719513 -0.5979614q0.347641 -0.57494354 0.14614868 -1.2080307q-0.18812561 -0.6250076 -1.0973358 -1.1747665l-2.5805664 -1.5603485l-1.6331024 2.7009048zm9.448944 9.346901l0.9567871 0.7428589q-0.7904358 0.76368713 -1.7661896 0.8675461q-0.9543152 0.09857178 -1.9838562 -0.52394867q-1.2969666 -0.7842102 -1.5740356 -2.047287q-0.27705383 -1.2630768 0.5880127 -2.693756q0.90548706 -1.4975281 2.1607819 -1.8523254q1.2767639 -0.3600769 2.5068817 0.38371277q1.1900024 0.7195358 1.4536743 1.9745255q0.26368713 1.2549973 -0.6256256 2.7257843q-0.05659485 0.09359741 -0.16169739 0.2674179l-4.412369 -2.6679459q-0.5366974 1.0084076 -0.3572693 1.8290024q0.1875 0.80722046 0.92289734 1.2518845q0.5615692 0.33955383 1.1190948 0.29322052q0.56562805 -0.059700012 1.1729126 -0.5506897zm-2.3029022 -3.6200714l3.302597 1.9969177q0.37780762 -0.7758179 0.29664612 -1.3361511q-0.12562561 -0.879364 -0.88775635 -1.3401871q-0.695282 -0.42040253 -1.446228 -0.23538971q-0.7428589 0.17164612 -1.2652588 0.9148102zm5.8427887 11.457344l1.754364 -2.9014664q-0.42941284 0.19683075 -0.9866333 0.15205383q-0.54385376 -0.03668976 -1.0252075 -0.3277359q-1.042923 -0.6306076 -1.2957153 -1.9337921q-0.25280762 -1.3031921 0.62841797 -2.7606125q0.54167175 -0.8958435 1.2776947 -1.4185486q0.73602295 -0.5227051 1.5426178 -0.52799225q0.80659485 -0.0052871704 1.5152588 0.4232025q1.096405 0.662941 1.1669922 1.9655075l0.47698975 -0.78887177l0.8958435 0.54167175l-4.947815 8.182938l-1.0028076 -0.60635376zm0.08053589 -7.108917q-0.6872101 1.1365204 -0.5534973 2.00251q0.14179993 0.852623 0.81033325 1.2568588q0.6417999 0.38806152 1.4197998 0.1281128q0.7994385 -0.26524353 1.4704742 -1.3750229q0.7114563 -1.1766281 0.57244873 -2.0640793q-0.11753845 -0.8927307 -0.7727051 -1.2888794q-0.6551666 -0.39614868 -1.4493256 -0.10945892q-0.78608704 0.27332306 -1.4975281 1.4499588zm7.7439117 8.735916l0.52549744 -0.8691025q-1.3016205 0.5824051 -2.4782562 -0.12904358q-0.5214691 -0.3153 -0.85479736 -0.79074097q-0.3333435 -0.4754486 -0.38278198 -0.90704346q-0.02798462 -0.43688202 0.1452179 -0.9347153q0.12437439 -0.3264923 0.5124359 -0.96829224l2.21521 -3.6636047l1.0028076 0.60635376l-1.9807434 3.2758484q-0.477005 0.7888794 -0.5852051 1.0886307q-0.1489563 0.4577179 0.021133423 0.8709717q0.17817688 0.39987946 0.632782 0.6747589q0.4412384 0.2667923 0.9798126 0.2820282q0.53855896 0.015235901 0.9415436 -0.28887177q0.40299988 -0.30410767 0.85572815 -1.0528717l1.9160767 -3.1688843l1.0028076 0.60635376l-3.5734253 5.909897l-0.8958435 -0.54167175zm7.6649323 2.0418015l0.9567871 0.7428589q-0.79042053 0.76369476 -1.7661896 0.8675461q-0.9542999 0.09857178 -1.9838562 -0.52394867q-1.2969666 -0.7842102 -1.5740204 -2.047287q-0.27705383 -1.2630768 0.5880127 -2.693756q0.9054718 -1.4975281 2.1607819 -1.8523178q1.2767487 -0.36008453 2.5068665 0.38370514q1.1900024 0.71954346 1.4536896 1.9745331q0.26368713 1.2549896 -0.6256256 2.7257767q-0.05659485 0.09359741 -0.16169739 0.2674179l-4.412369 -2.6679459q-0.5366974 1.0084076 -0.35728455 1.8290024q0.18751526 0.8072281 0.92289734 1.2518845q0.5615845 0.33955383 1.1191101 0.29322052q0.5656128 -0.059700012 1.1728973 -0.5506897zm-2.302887 -3.6200714l3.302597 1.9969177q0.37779236 -0.7758179 0.29664612 -1.3361511q-0.12562561 -0.879364 -0.8877716 -1.3401871q-0.695282 -0.42040253 -1.4462128 -0.23538971q-0.7428589 0.17164612 -1.2652588 0.9148102zm4.1126556 4.896942l1.0864563 0.4378128q-0.2702179 0.6582794 -0.08985901 1.2055511q0.20179749 0.54198456 0.88371277 0.95430756q0.695282 0.42040253 1.1993256 0.3417282q0.50405884 -0.07866669 0.730423 -0.4530487q0.20211792 -0.3342743 0.015853882 -0.7207794q-0.1197052 -0.254982 -0.8140564 -0.9487076q-0.94000244 -0.95181274 -1.2465973 -1.411087q-0.285141 -0.46456146 -0.3022461 -0.94963837q0.0043640137 -0.4903717 0.27114868 -0.9316025q0.2344513 -0.38775635 0.61039734 -0.6169281q0.39738464 -0.2344513 0.84236145 -0.27581024q0.33769226 -0.014923096 0.8115692 0.10727692q0.4738922 0.12220764 0.941864 0.40516663q0.695282 0.42040253 1.0954742 0.93627167q0.40019226 0.5158615 0.44404602 1.0171127q0.05192566 0.4878769 -0.20211792 1.1194153l-1.0569153 -0.4564743q0.20802307 -0.49502563 0.040725708 -0.9431076q-0.15919495 -0.46144867 -0.7475128 -0.8171768q-0.695282 -0.42040253 -1.1268768 -0.37095642q-0.4316101 0.049438477 -0.6175537 0.3569641q-0.1212616 0.20056915 -0.09794617 0.43377686q0.036697388 0.24129486 0.22605896 0.5018692q0.114746094 0.14241791 0.7288666 0.7876358q0.8998871 0.9275665 1.2011871 1.3653793q0.32276917 0.43253326 0.35324097 0.9256973q0.030471802 0.49316406 -0.2767334 1.0012512q-0.30722046 0.5080948 -0.8681793 0.7714691q-0.5609436 0.26337433 -1.2680511 0.16448975q-0.6937256 -0.090797424 -1.3890076 -0.51119995q-1.1498871 -0.695282 -1.4605255 -1.5404434q-0.31063843 -0.84516144 0.081466675 -1.8862152zm7.7710876 5.885643l-0.38650513 0.971405q-0.48446655 -0.16511536 -0.81874084 -0.36722565q-0.5482025 -0.3314743 -0.7506256 -0.69124603q-0.1890564 -0.35167694 -0.13961792 -0.7052307q0.049438477 -0.35354614 0.5991974 -1.262764l2.0535126 -3.3961868l-0.73539734 -0.44465637l0.46891785 -0.77550507l0.7353821 0.44465637l0.889328 -1.470787l1.3666077 0.00466156l-1.2531128 2.0724716l1.0028076 0.60635376l-0.46891785 0.77550507l-1.0028076 -0.60634613l-2.093933 3.4630356q-0.25871277 0.4278717 -0.29135132 0.57245636q-0.01928711 0.15267944 0.05255127 0.30566406q0.07991028 0.13961792 0.3072052 0.27706146q0.17382812 0.10509491 0.46549988 0.22667694z" fill-rule="nonzero"/><path fill="#6aa84f" d="m250.41077 136.96404l-1.9220428 -7.8081055l-1.4707336 2.4323578l-61.393158 -37.155563l-2.9414368 4.8646927l61.393158 37.155556l-1.4707184 2.4323425z" fill-rule="evenodd"/><path fill="#000000" fill-opacity="0.0" d="m282.94547 121.408104l-86.055115 -52.033325l-10.983551 18.165092l86.055115 52.033325z" fill-rule="evenodd"/><path fill="#000000" d="m194.20804 93.22818l4.939728 -8.169563l3.6235046 2.1909409q1.0830231 0.65486145 1.5071564 1.2217255q0.44560242 0.5615692 0.44030762 1.325264q0.008087158 0.7717743 -0.39614868 1.4403152q-0.52549744 0.8691025 -1.450882 1.1312332q-0.91729736 0.24875641 -2.1909485 -0.3022461q0.2985077 0.47264862 0.40454102 0.81064606q0.20927429 0.7108307 0.24098206 1.6247101l0.07525635 3.0765305l-1.3504486 -0.8165512l-0.056289673 -2.352951q-0.036697388 -1.0264435 -0.10975647 -1.6001434q-0.05970764 -0.5656204 -0.21673584 -0.8796768q-0.1436615 -0.30597687 -0.35198975 -0.504982q-0.16294861 -0.15329742 -0.57743835 -0.40392303l-1.2568512 -0.75995636l-2.1909485 3.6234894l-1.0830383 -0.65486145zm3.8399048 -3.9045868l2.3265228 1.4067307q0.73539734 0.44465637 1.2388306 0.5482025q0.5115051 0.09017944 0.92755127 -0.114738464q0.4294281 -0.19683075 0.67196655 -0.5979538q0.347641 -0.57494354 0.14614868 -1.2080383q-0.18812561 -0.6250076 -1.0973511 -1.1747665l-2.5805664 -1.5603409l-1.6331024 2.7009048zm9.448944 9.346893l0.9567871 0.7428589q-0.7904358 0.76369476 -1.7661896 0.8675537q-0.9542999 0.09856415 -1.9838562 -0.5239563q-1.2969666 -0.7842102 -1.5740204 -2.047287q-0.27705383 -1.2630768 0.58799744 -2.6937485q0.90548706 -1.4975357 2.160797 -1.8523254q1.2767487 -0.3600769 2.5068665 0.38371277q1.1900024 0.7195358 1.4536896 1.9745255q0.26368713 1.2549896 -0.6256256 2.7257767q-0.05659485 0.09359741 -0.16169739 0.2674179l-4.412369 -2.6679459q-0.5366974 1.0084076 -0.35728455 1.8290024q0.1875 0.8072281 0.92289734 1.2518845q0.5615692 0.33955383 1.1191101 0.29322815q0.5656128 -0.05970764 1.1728973 -0.5506973zm-2.302887 -3.6200638l3.3025818 1.9969101q0.37780762 -0.7758179 0.29664612 -1.3361435q-0.12561035 -0.879364 -0.88775635 -1.3401947q-0.695282 -0.42040253 -1.446228 -0.23538971q-0.7428436 0.17164612 -1.2652435 0.9148178zm4.1126556 4.8969345l1.0864563 0.43782043q-0.2702179 0.6582794 -0.08987427 1.2055435q0.20181274 0.54198456 0.883728 0.95430756q0.695282 0.42040253 1.1993256 0.34173584q0.5040436 -0.07867432 0.730423 -0.45305634q0.20211792 -0.3342743 0.015853882 -0.7207794q-0.1197052 -0.254982 -0.8140564 -0.9487076q-0.94000244 -0.95181274 -1.2465973 -1.411087q-0.285141 -0.46455383 -0.3022461 -0.94963837q0.004348755 -0.49036407 0.27114868 -0.9316025q0.2344513 -0.38775635 0.61039734 -0.6169205q0.39738464 -0.23445892 0.84236145 -0.27581787q0.33769226 -0.014923096 0.8115692 0.10727692q0.4738922 0.12220764 0.941864 0.40516663q0.695282 0.42041016 1.0954742 0.93627167q0.40019226 0.5158615 0.44404602 1.0171127q0.05192566 0.4878769 -0.20211792 1.1194153l-1.0569153 -0.45646667q0.20802307 -0.49503326 0.040725708 -0.94311523q-0.1592102 -0.46144867 -0.7475281 -0.8171692q-0.695282 -0.42040253 -1.1268768 -0.37096405q-0.43159485 0.049438477 -0.61753845 0.35697174q-0.121276855 0.20056152 -0.09794617 0.43376923q0.03668213 0.24130249 0.22605896 0.50187683q0.114730835 0.14241028 0.7288666 0.7876282q0.8998871 0.9275665 1.2011871 1.3653793q0.32276917 0.43253326 0.35324097 0.9256973q0.030471802 0.49316406 -0.27674866 1.0012589q-0.3072052 0.50808716 -0.86816406 0.7714615q-0.56095886 0.26337433 -1.2680511 0.16448975q-0.6937256 -0.090797424 -1.3890076 -0.51119995q-1.1498871 -0.695282 -1.4605255 -1.5404434q-0.31063843 -0.8451538 0.081466675 -1.8862152zm3.662201 7.7286453l4.947815 -8.182938l0.92259216 0.55783844l-0.4608307 0.76213837q0.5957794 -0.26057434 1.1262665 -0.23197174q0.55192566 0.02332306 1.1268768 0.37096405q0.74876404 0.45274353 1.0892487 1.1881409q0.35386658 0.74347687 0.2195282 1.6299896q-0.13432312 0.8865204 -0.65174866 1.7422485q-0.54167175 0.8958435 -1.3072205 1.4372101q-0.7574768 0.52799225 -1.6203613 0.5357666q-0.8495178 0.015853882 -1.5447998 -0.40454865q-0.49472046 -0.2991333 -0.7664795 -0.7556076q-0.2717743 -0.4564743 -0.3317871 -0.93097687l-1.7462921 2.888092l-1.0028076 -0.60634613zm4.0541534 -4.6514893q-0.695282 1.1498871 -0.57214355 1.972969q0.14459229 0.8177948 0.7997589 1.2139435q0.6685333 0.40423584 1.4894409 0.13371277q0.8209076 -0.2705307 1.540451 -1.4605331q0.67910767 -1.123146 0.5506897 -1.9676819q-0.12034607 -0.85791016 -0.762146 -1.2459717q-0.64178467 -0.38806915 -1.5003204 -0.085510254q-0.85853577 0.30255127 -1.5457306 1.4390717zm5.0756683 3.032486q0.9944153 -1.6446075 2.3939972 -1.8756485q1.1582794 -0.19434357 2.2546844 0.46860504q1.2167511 0.7357025 1.5071716 2.0068665q0.2985077 1.2577896 -0.5584564 2.6750946q-0.6872101 1.1365204 -1.4309998 1.5814819q-0.7304077 0.45305634 -1.6038666 0.41791534q-0.87345886 -0.03513336 -1.6489716 -0.5040436q-1.2434845 -0.75187683 -1.5419922 -2.0096664q-0.27705383 -1.2630768 0.6284332 -2.7606049zm1.0295563 0.62252045q-0.6872101 1.1365204 -0.53204346 1.9972229q0.16853333 0.8687973 0.91729736 1.3215332q0.74876404 0.45274353 1.5830536 0.19030762q0.84236145 -0.27581787 1.5457153 -1.4390793q0.6629486 -1.096405 0.49441528 -1.9651947q-0.15516663 -0.86071014 -0.89056396 -1.3053665q-0.74876404 -0.45274353 -1.596405 -0.19838715q-0.8342743 0.26244354 -1.5214691 1.3989639zm3.9011993 6.3941574l3.5734253 -5.909897l0.90922546 0.5497589l-0.5093384 0.84236145q1.2319794 -0.58800507 2.4620972 0.1557846q0.5348358 0.32338715 0.8762512 0.7854538q0.3414154 0.46207428 0.36132812 0.912323q0.04135132 0.44496918 -0.12376404 0.9294281q-0.11628723 0.3131256 -0.5366974 1.0084076l-2.1990356 3.6368637l-1.0028076 -0.60635376l2.1747742 -3.5967484q0.37190247 -0.61505127 0.4294281 -0.98197174q0.06561279 -0.3802948 -0.1234436 -0.73197937q-0.1809845 -0.36505127 -0.58210754 -0.6075897q-0.6417999 -0.38806915 -1.3523102 -0.2699051q-0.7105255 0.11815643 -1.3977203 1.2546768l-1.9564972 3.2357407l-1.0028076 -0.60635376zm7.0091553 1.8278732l1.0864563 0.4378128q-0.2702179 0.6582794 -0.08987427 1.2055511q0.20181274 0.54198456 0.88371277 0.9542999q0.695282 0.42040253 1.1993408 0.34173584q0.5040436 -0.07866669 0.730423 -0.45305634q0.20211792 -0.33426666 0.015853882 -0.7207794q-0.11972046 -0.25497437 -0.81407166 -0.94869995q-0.9399872 -0.9518204 -1.2465973 -1.411087q-0.28512573 -0.46456146 -0.30223083 -0.94963837q0.004348755 -0.4903717 0.27114868 -0.9316101q0.2344513 -0.38774872 0.6103821 -0.6169205q0.3973999 -0.2344513 0.84236145 -0.27581024q0.33769226 -0.014923096 0.8115845 0.10727692q0.47387695 0.12220001 0.941864 0.40516663q0.695282 0.42040253 1.0954742 0.93626404q0.40019226 0.51586914 0.44403076 1.0171204q0.05192566 0.4878769 -0.20211792 1.1194153l-1.0569153 -0.4564743q0.20802307 -0.49503326 0.040740967 -0.9431076q-0.1592102 -0.46144867 -0.7475281 -0.8171768q-0.695282 -0.42040253 -1.1268768 -0.37096405q-0.43159485 0.049446106 -0.61753845 0.35697174q-0.121276855 0.20056152 -0.097961426 0.43377686q0.036697388 0.24129486 0.22605896 0.5018692q0.114746094 0.14241791 0.7288666 0.7876358q0.8998871 0.9275589 1.2012024 1.3653793q0.32276917 0.43252563 0.35324097 0.9256897q0.030471802 0.4931717 -0.27674866 1.0012589q-0.30722046 0.5080948 -0.86816406 0.7714691q-0.56095886 0.26337433 -1.2680511 0.16448975q-0.6937256 -0.090797424 -1.3890076 -0.51119995q-1.1499023 -0.695282 -1.4605408 -1.5404434q-0.31063843 -0.84516144 0.08148193 -1.8862152zm10.235977 6.0065994l0.9567871 0.7428589q-0.7904358 0.76369476 -1.7661896 0.8675461q-0.9542999 0.09857178 -1.9838562 -0.52394867q-1.2969666 -0.7842102 -1.5740204 -2.047287q-0.2770691 -1.2630768 0.58799744 -2.6937485q0.90548706 -1.4975357 2.1607819 -1.8523254q1.2767639 -0.3600769 2.5068817 0.38371277q1.1900024 0.7195358 1.4536743 1.9745255q0.26368713 1.2549896 -0.6256256 2.7257767q-0.05659485 0.09359741 -0.16169739 0.2674179l-4.412369 -2.6679459q-0.5366974 1.0084076 -0.3572693 1.8290024q0.1875 0.8072281 0.92289734 1.2518845q0.5615692 0.33955383 1.1190948 0.29322815q0.56562805 -0.05970764 1.1729126 -0.5506973zm-2.3029022 -3.6200638l3.302597 1.9969101q0.37780762 -0.7758179 0.29664612 -1.3361435q-0.12562561 -0.879364 -0.88775635 -1.3401947q-0.695282 -0.42040253 -1.446228 -0.23538971q-0.7428589 0.17164612 -1.2652588 0.9148178z" fill-rule="nonzero"/></g></svg>