<svg version="1.1" viewBox="0.0 0.0 404.98950131233596 247.14435695538057" fill="none" stroke="none" stroke-linecap="square" stroke-miterlimit="10" xmlns:xlink="http://www.w3.org/1999/xlink" xmlns="http://www.w3.org/2000/svg"><clipPath id="p.0"><path d="m0 0l404.9895 0l0 247.14436l-404.9895 0l0 -247.14436z" clip-rule="nonzero"/></clipPath><g clip-path="url(#p.0)"><path fill="#000000" fill-opacity="0.0" d="m0 0l404.9895 0l0 247.14436l-404.9895 0z" fill-rule="evenodd"/><path fill="#e06666" d="m115.80971 55.034515l0 0c0 -17.27303 14.002563 -31.275589 31.275589 -31.275589l0 0c8.294815 0 16.249878 3.2950974 22.115189 9.160408c5.8653107 5.8653107 9.1604 13.820381 9.1604 22.115181l0 0c0 17.273033 -14.002548 31.275589 -31.275589 31.275589l0 0c-17.273026 0 -31.275589 -14.002556 -31.275589 -31.275589z" fill-rule="evenodd"/><path fill="#000000" d="m144.69398 56.423264l0 5.53125l-1.546875 0l0 -13.3125l3.65625 0q2.453125 0 3.625 0.9375q1.171875 0.9375 1.171875 2.8125q0 2.640625 -2.6875 3.578125l3.625 5.984375l-1.84375 0l-3.21875 -5.53125l-2.78125 0zm0 -1.34375l2.125 0q1.640625 0 2.40625 -0.640625q0.765625 -0.65625 0.765625 -1.953125q0 -1.328125 -0.78125 -1.90625q-0.78125 -0.578125 -2.5 -0.578125l-2.015625 0l0 5.078125z" fill-rule="nonzero"/><path fill="#6fa8dc" d="m251.7183 148.95128l0 0c0 2.8766632 9.327988 5.208664 20.83464 5.208664c11.506653 0 20.834656 -2.3320007 20.834656 -5.208664l0 45.015747c0 2.8766632 -9.328003 5.208664 -20.834656 5.208664c-11.506653 0 -20.83464 -2.3320007 -20.83464 -5.208664z" fill-rule="evenodd"/><path fill="#a8caea" d="m251.7183 148.95128l0 0c0 -2.8766632 9.327988 -5.208664 20.83464 -5.208664c11.506653 0 20.834656 2.3320007 20.834656 5.208664l0 0c0 2.8766632 -9.328003 5.208664 -20.834656 5.208664c-11.506653 0 -20.83464 -2.3320007 -20.83464 -5.208664z" fill-rule="evenodd"/><path fill="#000000" fill-opacity="0.0" d="m293.3876 148.95128l0 0c0 2.8766632 -9.328003 5.208664 -20.834656 5.208664c-11.506653 0 -20.83464 -2.3320007 -20.83464 -5.208664l0 0c0 -2.8766632 9.327988 -5.208664 20.83464 -5.208664c11.506653 0 20.834656 2.3320007 20.834656 5.208664l0 45.015747c0 2.8766632 -9.328003 5.208664 -20.834656 5.208664c-11.506653 0 -20.83464 -2.3320007 -20.83464 -5.208664l0 -45.015747" fill-rule="evenodd"/><path fill="#000000" d="m266.29993 180.98349l5.125 -13.359375l1.90625 0l5.46875 13.359375l-2.015625 0l-1.546875 -4.046875l-5.59375 0l-1.46875 4.046875l-1.875 0zm3.859375 -5.484375l4.53125 0l-1.40625 -3.703125q-0.625 -1.6875 -0.9375 -2.765625q-0.265625 1.28125 -0.71875 2.546875l-1.46875 3.921875z" fill-rule="nonzero"/><path fill="#ffd966" d="m241.27736 55.034515l0 0c0 -17.27303 14.002563 -31.275589 31.275589 -31.275589l0 0c8.2948 0 16.249878 3.2950974 22.115204 9.160408c5.8652954 5.8653107 9.1604 13.820381 9.1604 22.115181l0 0c0 17.273033 -14.002563 31.275589 -31.275604 31.275589l0 0c-17.273026 0 -31.275589 -14.002556 -31.275589 -31.275589z" fill-rule="evenodd"/><path fill="#000000" d="m266.60596 56.423264l0 5.53125l-1.546875 0l0 -13.3125l3.65625 0q2.453125 0 3.625 0.9375q1.171875 0.9375 1.171875 2.8125q0 2.640625 -2.6875 3.578125l3.625 5.984375l-1.84375 0l-3.21875 -5.53125l-2.78125 0zm0 -1.34375l2.125 0q1.640625 0 2.40625 -0.640625q0.765625 -0.65625 0.765625 -1.953125q0 -1.328125 -0.78125 -1.90625q-0.78125 -0.578125 -2.5 -0.578125l-2.015625 0l0 5.078125z" fill-rule="nonzero"/><path fill="#000000" d="m281.24796 64.50139q0 2.296875 -0.71875 3.4375q-0.71875 1.140625 -2.21875 1.140625q-1.4375 0 -2.1875 -1.15625q-0.734375 -1.171875 -0.734375 -3.421875q0 -2.3125 0.71875 -3.4375q0.71875 -1.125 2.203125 -1.125q1.4375 0 2.1875 1.171875q0.75 1.171875 0.75 3.390625zm-4.84375 0q0 1.9375 0.453125 2.828125q0.453125 0.875 1.453125 0.875q1.015625 0 1.453125 -0.890625q0.453125 -0.890625 0.453125 -2.8125q0 -1.90625 -0.453125 -2.796875q-0.4375 -0.890625 -1.453125 -0.890625q-1.0 0 -1.453125 0.875q-0.453125 0.875 -0.453125 2.8125z" fill-rule="nonzero"/><path fill="#ffd966" d="m266.91516 94.177l5.637787 -5.6377945l5.6378174 5.6377945l-2.8189087 0l0 47.338577l-5.637787 0l0 -47.338577z" fill-rule="evenodd"/><path fill="#6aa84f" d="m233.09418 144.45886l-8.037903 0.0064086914l2.0078735 -2.0078735l-45.45816 -45.31349l4.015747 -4.015747l45.45816 45.31349l2.0078735 -2.0078735z" fill-rule="evenodd"/><path fill="#6aa84f" d="m101.23351 44.109398l-5.6850357 5.6873474l0 -2.8425217l-71.85827 0.029190063l0 -5.6850395l71.85827 -0.029190063l0 -2.8425179z" fill-rule="evenodd"/><path fill="#000000" fill-opacity="0.0" d="m20.464567 14.940866l86.99213 0l0 21.228346l-86.99213 0z" fill-rule="evenodd"/><path fill="#000000" d="m30.511442 36.740868l0 -9.546877l4.234373 0q1.265625 0 1.921875 0.265625q0.671875 0.25 1.0625 0.90625q0.40625 0.65625 0.40625 1.4375q0 1.015625 -0.65625 1.71875q-0.65625 0.6875019 -2.03125 0.8750019q0.5 0.25 0.765625 0.484375q0.546875 0.5 1.046875 1.265625l1.65625 2.59375l-1.578125 0l-1.265625 -1.984375q-0.5625 -0.859375 -0.921875 -1.3125q-0.34375 -0.453125 -0.640625 -0.640625q-0.28125 -0.1875 -0.5625 -0.25q-0.21875 -0.046875 -0.703125 -0.046875l-1.4687481 0l0 4.234375l-1.265625 0zm1.265625 -5.328127l2.718748 0q0.859375 0 1.34375 -0.171875q0.484375 -0.1875 0.734375 -0.578125q0.265625 -0.390625 0.265625 -0.859375q0 -0.671875 -0.5 -1.109375q-0.484375 -0.4375 -1.546875 -0.4375l-3.015623 0l0 3.15625zm12.922026 3.109377l1.203125 0.140625q-0.28125 1.0625 -1.0625 1.65625q-0.765625 0.578125 -1.96875 0.578125q-1.515625 0 -2.40625 -0.9375q-0.890625 -0.9375 -0.890625 -2.609375q0 -1.7500019 0.890625 -2.703127q0.90625 -0.96875 2.34375 -0.96875q1.390625 0 2.265625 0.9375q0.875 0.9375 0.875 2.656252q0 0.109375 0 0.3125l-5.15625 0q0.0625 1.140625 0.640625 1.75q0.578125 0.59375 1.4375 0.59375q0.65625 0 1.109375 -0.328125q0.453125 -0.34375 0.71875 -1.078125zm-3.84375 -1.90625l3.859375 0q-0.078125 -0.8593769 -0.4375 -1.2968769q-0.5625 -0.6875 -1.453125 -0.6875q-0.8125 0 -1.359375 0.546875q-0.546875 0.53125 -0.609375 1.4375019zm10.928101 6.78125l0 -3.390625q-0.265625 0.390625 -0.765625 0.640625q-0.484375 0.25 -1.046875 0.25q-1.21875 0 -2.109375 -0.984375q-0.890625 -0.984375 -0.890625 -2.6875q0 -1.046875 0.359375 -1.8750019q0.359375 -0.828125 1.046875 -1.25q0.6875 -0.421875 1.515625 -0.421875q1.28125 0 2.015625 1.078125l0 -0.921875l1.046875 0l0 9.562502l-1.171875 0zm-3.609375 -6.125q0 1.328125 0.5625 2.0q0.5625 0.65625 1.34375 0.65625q0.75 0 1.28125 -0.625q0.546875 -0.640625 0.546875 -1.9375q0 -1.3750019 -0.578125 -2.062502q-0.5625 -0.703125 -1.328125 -0.703125q-0.765625 0 -1.296875 0.65625q-0.53125 0.640625 -0.53125 2.015627zm11.146851 3.46875l0 -1.015625q-0.8125 1.171875 -2.1875 1.171875q-0.609375 0 -1.140625 -0.234375q-0.53125 -0.234375 -0.796875 -0.578125q-0.25 -0.359375 -0.359375 -0.875q-0.0625 -0.34375 -0.0625 -1.09375l0 -4.281252l1.171875 0l0 3.828127q0 0.921875 0.0625 1.234375q0.109375 0.46875 0.46875 0.734375q0.359375 0.25 0.890625 0.25q0.515625 0 0.984375 -0.265625q0.46875 -0.265625 0.65625 -0.734375q0.1875 -0.46875 0.1875 -1.34375l0 -3.703127l1.171875 0l0 6.906252l-1.046875 0zm7.6156044 -2.21875l1.203125 0.140625q-0.28125 1.0625 -1.0625 1.65625q-0.765625 0.578125 -1.96875 0.578125q-1.5156288 0 -2.4062538 -0.9375q-0.890625 -0.9375 -0.890625 -2.609375q0 -1.7500019 0.890625 -2.703127q0.90625 -0.96875 2.3437538 -0.96875q1.390625 0 2.265625 0.9375q0.875 0.9375 0.875 2.656252q0 0.109375 0 0.3125l-5.156254 0q0.0625 1.140625 0.640625 1.75q0.5781288 0.59375 1.4375038 0.59375q0.65625 0 1.109375 -0.328125q0.453125 -0.34375 0.71875 -1.078125zm-3.8437538 -1.90625l3.8593788 0q-0.078125 -0.8593769 -0.4375 -1.2968769q-0.5625 -0.6875 -1.453125 -0.6875q-0.8125 0 -1.3593788 0.546875q-0.546875 0.53125 -0.609375 1.4375019zm6.0531044 2.0625l1.15625 -0.1875q0.109375 0.703125 0.546875 1.078125q0.453125 0.359375 1.25 0.359375q0.8125 0 1.203125 -0.328125q0.390625 -0.328125 0.390625 -0.765625q0 -0.390625 -0.359375 -0.625q-0.234375 -0.15625 -1.1875 -0.390625q-1.296875 -0.328125 -1.796875 -0.5625q-0.484375 -0.25 -0.75 -0.65625q-0.25 -0.421875 -0.25 -0.9375019q0 -0.453125 0.203125 -0.84375q0.21875 -0.40625 0.578125 -0.671875q0.28125 -0.1875 0.75 -0.328125q0.46875 -0.140625 1.015625 -0.140625q0.8125 0 1.421875 0.234375q0.609375 0.234375 0.90625 0.640625q0.296875 0.390625 0.40625 1.0625l-1.140625 0.15625q-0.078125 -0.53125 -0.453125 -0.828125q-0.375 -0.3125 -1.0625 -0.3125q-0.8125 0 -1.15625 0.265625q-0.34375 0.265625 -0.34375 0.625q0 0.234375 0.140625 0.421875q0.15625 0.1875019 0.453125 0.3125019q0.171875 0.0625 1.03125 0.296875q1.25 0.328125 1.734375 0.546875q0.5 0.203125 0.78125 0.609375q0.28125 0.40625 0.28125 1.0q0 0.59375 -0.34375 1.109375q-0.34375 0.515625 -1.0 0.796875q-0.640625 0.28125 -1.453125 0.28125q-1.34375 0 -2.046875 -0.5625q-0.703125 -0.5625 -0.90625 -1.65625zm9.6953125 1.015625l0.171875 1.03125q-0.5 0.109375 -0.890625 0.109375q-0.640625 0 -1.0 -0.203125q-0.34375 -0.203125 -0.484375 -0.53125q-0.140625 -0.328125 -0.140625 -1.390625l0 -3.968752l-0.859375 0l0 -0.90625l0.859375 0l0 -1.71875l1.171875 -0.703125l0 2.421875l1.171875 0l0 0.90625l-1.171875 0l0 4.046877q0 0.5 0.046875 0.640625q0.0625 0.140625 0.203125 0.234375q0.140625 0.078125 0.40625 0.078125q0.203125 0 0.515625 -0.046875z" fill-rule="nonzero"/><path fill="#6aa84f" d="m23.7899 71.090416l5.6850376 -5.687355l0 2.8425217l71.76378 -0.029182434l0 5.6850357l-71.76378 0.029182434l0 2.8425217z" fill-rule="evenodd"/><path fill="#000000" fill-opacity="0.0" d="m20.464567 40.943493l100.566925 0l0 21.228344l-100.566925 0z" fill-rule="evenodd"/><path fill="#000000" d="m30.511442 62.743492l0 -9.546875l4.234373 0q1.265625 0 1.921875 0.265625q0.671875 0.25 1.0625 0.90625q0.40625 0.65625 0.40625 1.4375q0 1.015625 -0.65625 1.71875q-0.65625 0.6875 -2.03125 0.875q0.5 0.25 0.765625 0.484375q0.546875 0.5 1.046875 1.265625l1.65625 2.59375l-1.578125 0l-1.265625 -1.984375q-0.5625 -0.859375 -0.921875 -1.3125q-0.34375 -0.453125 -0.640625 -0.640625q-0.28125 -0.1875 -0.5625 -0.25q-0.21875 -0.046875 -0.703125 -0.046875l-1.4687481 0l0 4.234375l-1.265625 0zm1.265625 -5.328125l2.718748 0q0.859375 0 1.34375 -0.171875q0.484375 -0.1875 0.734375 -0.578125q0.265625 -0.390625 0.265625 -0.859375q0 -0.671875 -0.5 -1.109375q-0.484375 -0.4375 -1.546875 -0.4375l-3.015623 0l0 3.15625zm12.922026 3.109375l1.203125 0.140625q-0.28125 1.0625 -1.0625 1.65625q-0.765625 0.578125 -1.96875 0.578125q-1.515625 0 -2.40625 -0.9375q-0.890625 -0.9375 -0.890625 -2.609375q0 -1.75 0.890625 -2.703125q0.90625 -0.96875 2.34375 -0.96875q1.390625 0 2.265625 0.9375q0.875 0.9375 0.875 2.65625q0 0.109375 0 0.3125l-5.15625 0q0.0625 1.140625 0.640625 1.75q0.578125 0.59375 1.4375 0.59375q0.65625 0 1.109375 -0.328125q0.453125 -0.34375 0.71875 -1.078125zm-3.84375 -1.90625l3.859375 0q-0.078125 -0.859375 -0.4375 -1.296875q-0.5625 -0.6875 -1.453125 -0.6875q-0.8125 0 -1.359375 0.546875q-0.546875 0.53125 -0.609375 1.4375zm6.0531006 2.0625l1.15625 -0.1875q0.109375 0.703125 0.546875 1.078125q0.453125 0.359375 1.25 0.359375q0.8125 0 1.203125 -0.328125q0.390625 -0.328125 0.390625 -0.765625q0 -0.390625 -0.359375 -0.625q-0.234375 -0.15625 -1.1875 -0.390625q-1.296875 -0.328125 -1.796875 -0.5625q-0.484375 -0.25 -0.75 -0.65625q-0.25 -0.421875 -0.25 -0.9375q0 -0.453125 0.203125 -0.84375q0.21875 -0.40625 0.578125 -0.671875q0.28125 -0.1875 0.75 -0.328125q0.46875 -0.140625 1.015625 -0.140625q0.8125 0 1.421875 0.234375q0.609375 0.234375 0.90625 0.640625q0.296875 0.390625 0.40625 1.0625l-1.140625 0.15625q-0.078125 -0.53125 -0.453125 -0.828125q-0.375 -0.3125 -1.0625 -0.3125q-0.8125 0 -1.15625 0.265625q-0.34375 0.265625 -0.34375 0.625q0 0.234375 0.140625 0.421875q0.15625 0.1875 0.453125 0.3125q0.171875 0.0625 1.03125 0.296875q1.25 0.328125 1.734375 0.546875q0.5 0.203125 0.78125 0.609375q0.28125 0.40625 0.28125 1.0q0 0.59375 -0.34375 1.109375q-0.34375 0.515625 -1.0 0.796875q-0.640625 0.28125 -1.453125 0.28125q-1.34375 0 -2.046875 -0.5625q-0.703125 -0.5625 -0.90625 -1.65625zm7.1328125 4.71875l0 -9.5625l1.078125 0l0 0.890625q0.375 -0.53125 0.84375 -0.78125q0.484375 -0.265625 1.15625 -0.265625q0.875 0 1.546875 0.453125q0.6875 0.453125 1.03125 1.28125q0.34375 0.828125 0.34375 1.828125q0 1.046875 -0.375 1.90625q-0.375 0.84375 -1.109375 1.296875q-0.71875 0.453125 -1.53125 0.453125q-0.578125 0 -1.046875 -0.25q-0.46875 -0.25 -0.765625 -0.625l0 3.375l-1.171875 0zm1.0625 -6.078125q0 1.34375 0.53125 1.984375q0.546875 0.625 1.3125 0.625q0.78125 0 1.34375 -0.65625q0.5625 -0.65625 0.5625 -2.046875q0 -1.3125 -0.546875 -1.96875q-0.546875 -0.671875 -1.296875 -0.671875q-0.75 0 -1.328125 0.703125q-0.578125 0.703125 -0.578125 2.03125zm5.9124756 -0.03125q0 -1.921875 1.078125 -2.84375q0.890625 -0.765625 2.1718788 -0.765625q1.421875 0 2.328125 0.9375q0.90625 0.921875 0.90625 2.578125q0 1.328125 -0.40625 2.09375q-0.390625 0.765625 -1.15625 1.1875q-0.765625 0.421875 -1.671875 0.421875q-1.4531288 0 -2.3593788 -0.921875q-0.890625 -0.9375 -0.890625 -2.6875zm1.203125 0q0 1.328125 0.578125 1.984375q0.59375 0.65625 1.4687538 0.65625q0.875 0 1.453125 -0.65625q0.578125 -0.671875 0.578125 -2.03125q0 -1.28125 -0.59375 -1.9375q-0.578125 -0.65625 -1.4375 -0.65625q-0.8750038 0 -1.4687538 0.65625q-0.578125 0.65625 -0.578125 1.984375zm6.6468544 3.453125l0 -6.90625l1.0625 0l0 0.984375q0.75 -1.140625 2.1875 -1.140625q0.625 0 1.15625 0.21875q0.53125 0.21875 0.78125 0.59375q0.265625 0.359375 0.375 0.859375q0.0625 0.328125 0.0625 1.140625l0 4.25l-1.171875 0l0 -4.203125q0 -0.71875 -0.140625 -1.0625q-0.140625 -0.359375 -0.484375 -0.5625q-0.34375 -0.21875 -0.8125 -0.21875q-0.75 0 -1.296875 0.46875q-0.546875 0.46875 -0.546875 1.796875l0 3.78125l-1.171875 0zm6.9437256 -2.0625l1.15625 -0.1875q0.109375 0.703125 0.546875 1.078125q0.453125 0.359375 1.25 0.359375q0.8125 0 1.203125 -0.328125q0.390625 -0.328125 0.390625 -0.765625q0 -0.390625 -0.359375 -0.625q-0.234375 -0.15625 -1.1875 -0.390625q-1.296875 -0.328125 -1.796875 -0.5625q-0.484375 -0.25 -0.75 -0.65625q-0.25 -0.421875 -0.25 -0.9375q0 -0.453125 0.203125 -0.84375q0.21875 -0.40625 0.578125 -0.671875q0.28125 -0.1875 0.75 -0.328125q0.46875 -0.140625 1.015625 -0.140625q0.8125 0 1.421875 0.234375q0.609375 0.234375 0.90625 0.640625q0.296875 0.390625 0.40625 1.0625l-1.140625 0.15625q-0.078125 -0.53125 -0.453125 -0.828125q-0.375 -0.3125 -1.0625 -0.3125q-0.8125 0 -1.15625 0.265625q-0.34375 0.265625 -0.34375 0.625q0 0.234375 0.140625 0.421875q0.15625 0.1875 0.453125 0.3125q0.171875 0.0625 1.03125 0.296875q1.25 0.328125 1.734375 0.546875q0.5 0.203125 0.78125 0.609375q0.28125 0.40625 0.28125 1.0q0 0.59375 -0.34375 1.109375q-0.34375 0.515625 -1.0 0.796875q-0.640625 0.28125 -1.453125 0.28125q-1.34375 0 -2.046875 -0.5625q-0.703125 -0.5625 -0.90625 -1.65625zm11.8671875 -0.15625l1.203125 0.140625q-0.28125 1.0625 -1.0625 1.65625q-0.765625 0.578125 -1.96875 0.578125q-1.515625 0 -2.40625 -0.9375q-0.890625 -0.9375 -0.890625 -2.609375q0 -1.75 0.890625 -2.703125q0.90625 -0.96875 2.34375 -0.96875q1.390625 0 2.265625 0.9375q0.875 0.9375 0.875 2.65625q0 0.109375 0 0.3125l-5.15625 0q0.0625 1.140625 0.640625 1.75q0.578125 0.59375 1.4375 0.59375q0.65625 0 1.109375 -0.328125q0.453125 -0.34375 0.71875 -1.078125zm-3.84375 -1.90625l3.859375 0q-0.078125 -0.859375 -0.4375 -1.296875q-0.5625 -0.6875 -1.453125 -0.6875q-0.8125 0 -1.359375 0.546875q-0.546875 0.53125 -0.609375 1.4375z" fill-rule="nonzero"/><path fill="#000000" fill-opacity="0.0" d="m201.38527 71.95585l71.11812 71.11811l-15.023621 15.023621l-71.11812 -71.11811z" fill-rule="evenodd"/><path fill="#000000" d="m193.0635 94.46394l6.750656 -6.7506638l2.5411682 2.5411682q0.67396545 0.6739578 0.9612274 1.0938034q0.40879822 0.5855713 0.5082245 1.1490479q0.11048889 0.5745239 -0.11047363 1.1932449q-0.20993042 0.6297684 -0.70710754 1.1269531q-0.8617859 0.8617859 -2.0108337 0.90597534q-1.1380005 0.055244446 -2.5743103 -1.3810654l-1.7235718 -1.7235718l-2.7400513 2.740036l-0.894928 -0.894928zm4.4304657 -2.640602l1.7346191 1.7346191q0.87283325 0.87283325 1.5578461 0.91703033q0.6960602 0.03314209 1.2705841 -0.54138184q0.43089294 -0.43089294 0.50823975 -0.9501724q0.088378906 -0.5082321 -0.16574097 -0.9612198q-0.15467834 -0.28726196 -0.76234436 -0.8949356l-1.7235718 -1.7235718l-2.419632 2.419632zm4.8607483 5.368973q1.6793823 -1.6793747 3.5355377 -1.7235718q1.8561554 -0.044189453 3.2814178 1.381073q0.92807007 0.9280777 1.2374268 2.121315q0.3093567 1.1932449 -0.11048889 2.3864899q-0.3977356 1.1932373 -1.4141998 2.2097092q-1.0164795 1.0164642 -2.2539062 1.4142075q-1.2153473 0.39775085 -2.3975372 0.055244446q-1.1600952 -0.3425064 -2.0439758 -1.226387q-0.95018005 -0.9501724 -1.2484894 -2.1544647q-0.28726196 -1.2153397 0.121536255 -2.3975372q0.40879822 -1.18219 1.2926788 -2.0660782zm0.9170227 0.9391327q-1.215332 1.2153397 -1.2705841 2.5743103q-0.044189453 1.3479156 0.95018005 2.3422852q1.0054169 1.0054169 2.3643951 0.95018005q1.358963 -0.055244446 2.6626892 -1.3589706q0.81759644 -0.81759644 1.1490479 -1.7235718q0.34251404 -0.8949356 0.13258362 -1.7677689q-0.18782043 -0.87283325 -0.8507385 -1.5357513q-0.9501648 -0.9501724 -2.2870483 -0.98332214q-1.3258209 -0.022094727 -2.850525 1.5026093zm5.2645416 7.4742355l0.92807007 0.77339935q-0.45298767 0.56347656 -0.56347656 1.1159058q-0.09942627 0.5413742 0.15467834 1.1932449q0.26516724 0.66291046 0.83969116 1.2374344q0.50823975 0.5082321 1.0496216 0.74024963q0.55241394 0.24307251 0.9943695 0.1767807q0.45298767 -0.07733917 0.7733917 -0.39775085q0.32040405 -0.32040405 0.36460876 -0.74024963q0.055236816 -0.40879822 -0.19888306 -0.9943695q-0.16572571 -0.3867035 -0.87283325 -1.5357513q-0.70710754 -1.1490479 -0.8838806 -1.7235718q-0.22097778 -0.7292023 -0.088394165 -1.3479233q0.14363098 -0.607666 0.607666 -1.0717087q0.50823975 -0.5082321 1.237442 -0.66291046q0.7292023 -0.15467834 1.5136566 0.16572571q0.79548645 0.33145905 1.4804993 1.0164719q0.74024963 0.74024963 1.0717163 1.5578384q0.33145142 0.81759644 0.16572571 1.6020432q-0.15467834 0.77339935 -0.7181549 1.3810654l-0.91703796 -0.7844467q0.56347656 -0.7181549 0.48614502 -1.4363098q-0.06629944 -0.7292023 -0.83969116 -1.5026016q-0.8065491 -0.80654144 -1.4805145 -0.8838806q-0.66290283 -0.06629181 -1.0827484 0.35355377q-0.36460876 0.36460114 -0.34251404 0.8507385q0.03315735 0.49718475 0.86180115 1.834053q0.85072327 1.3368759 1.071701 1.9113998q0.32040405 0.87283325 0.17677307 1.5688934q-0.13258362 0.6850128 -0.6850128 1.2374344q-0.5303192 0.5303345 -1.3258209 0.70710754q-0.7733917 0.1767807 -1.6241302 -0.14363098q-0.8286438 -0.32040405 -1.5467987 -1.038559q-0.9170227 -0.91703033 -1.2705841 -1.8009186q-0.35354614 -0.8838806 -0.17677307 -1.7677612q0.18782043 -0.8949356 0.83969116 -1.5909958zm6.1423645 10.473404l5.9551697 -5.955162l-2.220749 -2.2207565l0.79548645 -0.7954941l5.3475037 5.347496l-0.7955017 0.7954941l-2.2318115 -2.231804l-5.9551544 5.955162l-0.89494324 -0.8949356z" fill-rule="nonzero"/><path fill="#6fa8dc" d="m126.250656 151.99852l0 0c0 2.8766632 9.327988 5.208664 20.83464 5.208664c11.506668 0 20.834656 -2.3320007 20.834656 -5.208664l0 45.015747c0 2.8766785 -9.327988 5.208664 -20.834656 5.208664c-11.506653 0 -20.83464 -2.3319855 -20.83464 -5.208664z" fill-rule="evenodd"/><path fill="#a8caea" d="m126.250656 151.99852l0 0c0 -2.8766632 9.327988 -5.2086487 20.83464 -5.2086487c11.506668 0 20.834656 2.3319855 20.834656 5.2086487l0 0c0 2.8766632 -9.327988 5.208664 -20.834656 5.208664c-11.506653 0 -20.83464 -2.3320007 -20.83464 -5.208664z" fill-rule="evenodd"/><path fill="#000000" fill-opacity="0.0" d="m167.91995 151.99852l0 0c0 2.8766632 -9.327988 5.208664 -20.834656 5.208664c-11.506653 0 -20.83464 -2.3320007 -20.83464 -5.208664l0 0c0 -2.8766632 9.327988 -5.2086487 20.83464 -5.2086487c11.506668 0 20.834656 2.3319855 20.834656 5.2086487l0 45.015747c0 2.8766785 -9.327988 5.208664 -20.834656 5.208664c-11.506653 0 -20.83464 -2.3319855 -20.83464 -5.208664l0 -45.015747" fill-rule="evenodd"/><path fill="#000000" d="m137.20639 182.97073l0 -11.453125l3.953125 0q1.328125 0 2.03125 0.15625q0.984375 0.234375 1.6875 0.828125q0.90625 0.765625 1.34375 1.953125q0.453125 1.1875 0.453125 2.71875q0 1.3125 -0.3125 2.328125q-0.296875 1.0 -0.78125 1.65625q-0.46875 0.65625 -1.03125 1.046875q-0.5625 0.375 -1.375 0.578125q-0.796875 0.1875 -1.828125 0.1875l-4.140625 0zm1.515625 -1.359375l2.453125 0q1.125 0 1.765625 -0.203125q0.65625 -0.21875 1.03125 -0.59375q0.546875 -0.546875 0.84375 -1.453125q0.296875 -0.90625 0.296875 -2.203125q0 -1.796875 -0.59375 -2.765625q-0.578125 -0.96875 -1.421875 -1.296875q-0.609375 -0.234375 -1.96875 -0.234375l-2.40625 0l0 8.75zm9.9765625 1.359375l0 -11.453125l4.296875 0q1.3125 0 2.109375 0.34375q0.796875 0.34375 1.234375 1.078125q0.453125 0.71875 0.453125 1.5q0 0.734375 -0.40625 1.390625q-0.390625 0.640625 -1.1875 1.046875q1.03125 0.296875 1.59375 1.03125q0.5625 0.734375 0.5625 1.734375q0 0.8125 -0.34375 1.5q-0.34375 0.6875 -0.84375 1.0625q-0.5 0.375 -1.25 0.578125q-0.75 0.1875 -1.84375 0.1875l-4.375 0zm1.515625 -6.640625l2.484375 0q1.0 0 1.4375 -0.140625q0.578125 -0.171875 0.875 -0.5625q0.296875 -0.40625 0.296875 -1.0q0 -0.578125 -0.28125 -1.0q-0.265625 -0.4375 -0.78125 -0.59375q-0.5 -0.171875 -1.734375 -0.171875l-2.296875 0l0 3.46875zm0 5.28125l2.859375 0q0.734375 0 1.03125 -0.046875q0.515625 -0.09375 0.859375 -0.3125q0.359375 -0.21875 0.578125 -0.640625q0.234375 -0.421875 0.234375 -0.96875q0 -0.640625 -0.328125 -1.109375q-0.328125 -0.46875 -0.90625 -0.65625q-0.578125 -0.203125 -1.671875 -0.203125l-2.65625 0l0 3.9375z" fill-rule="nonzero"/><path fill="#980000" d="m142.93832 94.98672l5.637787 -5.6377945l5.637802 5.6377945l-2.8188934 0l0 47.338585l-5.637802 0l0 -47.338585z" fill-rule="evenodd"/></g></svg>