<svg version="1.1" viewBox="0.0 0.0 404.98950131233596 247.14435695538057" fill="none" stroke="none" stroke-linecap="square" stroke-miterlimit="10" xmlns:xlink="http://www.w3.org/1999/xlink" xmlns="http://www.w3.org/2000/svg"><clipPath id="p.0"><path d="m0 0l404.9895 0l0 247.14436l-404.9895 0l0 -247.14436z" clip-rule="nonzero"/></clipPath><g clip-path="url(#p.0)"><path fill="#000000" fill-opacity="0.0" d="m0 0l404.9895 0l0 247.14436l-404.9895 0z" fill-rule="evenodd"/><path fill="#6fa8dc" d="m62.250908 153.85826l0 0c0 3.8268585 57.681236 6.929138 128.83466 6.929138c71.1534 0 128.83464 -3.1022797 128.83464 -6.929138l0 41.574814c0 3.8268433 -57.681244 6.929123 -128.83464 6.929123c-71.15341 0 -128.83466 -3.1022797 -128.83466 -6.929123z" fill-rule="evenodd"/><path fill="#a8caea" d="m62.250908 153.85826l0 0c0 -3.8268433 57.681236 -6.929123 128.83466 -6.929123c71.1534 0 128.83464 3.1022797 128.83464 6.929123l0 0c0 3.8268585 -57.681244 6.929138 -128.83464 6.929138c-71.15341 0 -128.83466 -3.1022797 -128.83466 -6.929138z" fill-rule="evenodd"/><path fill="#000000" fill-opacity="0.0" d="m319.9202 153.85826l0 0c0 3.8268585 -57.681244 6.929138 -128.83464 6.929138c-71.15341 0 -128.83466 -3.1022797 -128.83466 -6.929138l0 0c0 -3.8268433 57.681236 -6.929123 128.83466 -6.929123c71.1534 0 128.83464 3.1022797 128.83464 6.929123l0 41.574814c0 3.8268433 -57.681244 6.929123 -128.83464 6.929123c-71.15341 0 -128.83466 -3.1022797 -128.83466 -6.929123l0 -41.574814" fill-rule="evenodd"/><path fill="#6aa84f" d="m240.22704 175.59473l0 -9.248032l0 0c0 -3.9725342 3.2203827 -7.192917 7.192917 -7.192917l31.905518 0c1.9076538 0 3.7372131 0.75782776 5.086151 2.1067657c1.348938 1.3489227 2.1067505 3.1784668 2.1067505 5.086151l0 1.0275574l2.0551147 0l-4.1102295 4.1102448l-4.1102295 -4.1102448l2.0551147 0l0 -1.0275574c0 -1.7025146 -1.3801575 -3.082672 -3.082672 -3.082672l-31.905518 0l0 0c-1.7025146 0 -3.0826874 1.3801575 -3.0826874 3.082672l0 9.248032z" fill-rule="evenodd"/><path fill="#000000" fill-opacity="0.0" d="m232.22835 135.1354l182.04726 0l0 21.228348l-182.04726 0z" fill-rule="evenodd"/><path fill="#000000" d="m246.61897 154.40416l1.15625 0.15625q-0.1875 1.1875 -0.96875 1.859375q-0.78125 0.671875 -1.921875 0.671875q-1.40625 0 -2.28125 -0.921875q-0.859375 -0.9375 -0.859375 -2.65625q0 -1.125 0.375 -1.96875q0.375 -0.84375 1.125 -1.25q0.765625 -0.421875 1.65625 -0.421875q1.125 0 1.84375 0.578125q0.71875 0.5625 0.921875 1.609375l-1.140625 0.171875q-0.171875 -0.703125 -0.59375 -1.046875q-0.40625 -0.359375 -0.984375 -0.359375q-0.890625 0 -1.453125 0.640625q-0.546875 0.640625 -0.546875 2.0q0 1.40625 0.53125 2.03125q0.546875 0.625 1.40625 0.625q0.6875 0 1.140625 -0.421875q0.46875 -0.421875 0.59375 -1.296875zm2.1484375 2.53125l0 -9.546875l1.171875 0l0 3.421875q0.828125 -0.9375 2.078125 -0.9375q0.765625 0 1.328125 0.296875q0.5625 0.296875 0.8125 0.84375q0.25 0.53125 0.25 1.546875l0 4.375l-1.171875 0l0 -4.375q0 -0.890625 -0.390625 -1.28125q-0.375 -0.40625 -1.078125 -0.40625q-0.515625 0 -0.984375 0.28125q-0.453125 0.265625 -0.65625 0.734375q-0.1875 0.453125 -0.1875 1.265625l0 3.78125l-1.171875 0zm11.928085 -0.859375q-0.65625 0.5625 -1.265625 0.796875q-0.59375 0.21875 -1.28125 0.21875q-1.140625 0 -1.75 -0.546875q-0.60935974 -0.5625 -0.60935974 -1.4375q0 -0.5 0.21873474 -0.921875q0.234375 -0.421875 0.609375 -0.671875q0.375 -0.25 0.84375 -0.390625q0.34375 -0.078125 1.046875 -0.171875q1.421875 -0.171875 2.09375 -0.40625q0 -0.234375 0 -0.296875q0 -0.71875 -0.328125 -1.015625q-0.453125 -0.390625 -1.34375 -0.390625q-0.8125 0 -1.21875 0.296875q-0.390625 0.28125 -0.578125 1.015625l-1.1406097 -0.15625q0.15623474 -0.734375 0.51560974 -1.1875q0.359375 -0.453125 1.03125 -0.6875q0.671875 -0.25 1.5625 -0.25q0.890625 0 1.4375 0.203125q0.5625 0.203125 0.8125 0.53125q0.265625 0.3125 0.375 0.796875q0.046875 0.296875 0.046875 1.078125l0 1.5625q0 1.625 0.078125 2.0625q0.078125 0.4375 0.296875 0.828125l-1.21875 0q-0.1875 -0.359375 -0.234375 -0.859375zm-0.09375 -2.609375q-0.640625 0.265625 -1.921875 0.4375q-0.71875 0.109375 -1.015625 0.25q-0.296875 0.125 -0.46875 0.375q-0.15625 0.25 -0.15625 0.546875q0 0.46875 0.34375 0.78125q0.359375 0.3125 1.046875 0.3125q0.671875 0 1.203125 -0.296875q0.53125 -0.296875 0.78125 -0.8125q0.1875 -0.390625 0.1875 -1.171875l0 -0.421875zm2.9906006 3.46875l0 -6.90625l1.0625 0l0 0.984375q0.75 -1.140625 2.1875 -1.140625q0.625 0 1.15625 0.21875q0.53125 0.21875 0.78125 0.59375q0.265625 0.359375 0.375 0.859375q0.0625 0.328125 0.0625 1.140625l0 4.25l-1.171875 0l0 -4.203125q0 -0.71875 -0.140625 -1.0625q-0.140625 -0.359375 -0.484375 -0.5625q-0.34375 -0.21875 -0.8125 -0.21875q-0.75 0 -1.296875 0.46875q-0.546875 0.46875 -0.546875 1.796875l0 3.78125l-1.171875 0zm7.1937256 0.578125l1.140625 0.15625q0.078125 0.53125 0.40625 0.78125q0.4375 0.3125 1.1875 0.3125q0.8125 0 1.25 -0.328125q0.453125 -0.3125 0.609375 -0.90625q0.09375 -0.359375 0.078125 -1.5q-0.765625 0.90625 -1.90625 0.90625q-1.4375 0 -2.21875 -1.03125q-0.78125 -1.03125 -0.78125 -2.46875q0 -0.984375 0.359375 -1.8125q0.359375 -0.84375 1.03125 -1.296875q0.6875 -0.453125 1.609375 -0.453125q1.21875 0 2.015625 0.984375l0 -0.828125l1.078125 0l0 5.96875q0 1.609375 -0.328125 2.28125q-0.328125 0.6875 -1.046875 1.078125q-0.703125 0.390625 -1.75 0.390625q-1.234375 0 -2.0 -0.5625q-0.75 -0.5625 -0.734375 -1.671875zm0.984375 -4.15625q0 1.359375 0.53125 1.984375q0.546875 0.625 1.359375 0.625q0.796875 0 1.34375 -0.625q0.546875 -0.625 0.546875 -1.953125q0 -1.265625 -0.5625 -1.90625q-0.5625 -0.640625 -1.359375 -0.640625q-0.765625 0 -1.3125 0.640625q-0.546875 0.625 -0.546875 1.875zm11.381226 1.359375l1.203125 0.140625q-0.28125 1.0625 -1.0625 1.65625q-0.765625 0.578125 -1.96875 0.578125q-1.515625 0 -2.40625 -0.9375q-0.890625 -0.9375 -0.890625 -2.609375q0 -1.75 0.890625 -2.703125q0.90625 -0.96875 2.34375 -0.96875q1.390625 0 2.265625 0.9375q0.875 0.9375 0.875 2.65625q0 0.109375 0 0.3125l-5.15625 0q0.0625 1.140625 0.640625 1.75q0.578125 0.59375 1.4375 0.59375q0.65625 0 1.109375 -0.328125q0.453125 -0.34375 0.71875 -1.078125zm-3.84375 -1.90625l3.859375 0q-0.078125 -0.859375 -0.4375 -1.296875q-0.5625 -0.6875 -1.453125 -0.6875q-0.8125 0 -1.359375 0.546875q-0.546875 0.53125 -0.609375 1.4375z" fill-rule="nonzero"/><path fill="#6aa84f" d="m167.22704 175.59473l0 -9.248032l0 0c0 -3.9725342 3.2203827 -7.192917 7.192917 -7.192917l31.905502 0c1.9076843 0 3.7372284 0.75782776 5.0861664 2.1067657c1.3489227 1.3489227 2.1067505 3.1784668 2.1067505 5.086151l0 1.0275574l2.0551147 0l-4.1102295 4.1102448l-4.1102448 -4.1102448l2.05513 0l0 -1.0275574c0 -1.7025146 -1.3801727 -3.082672 -3.0826874 -3.082672l-31.905502 0l0 0c-1.7025146 0 -3.0826874 1.3801575 -3.0826874 3.082672l0 9.248032z" fill-rule="evenodd"/><path fill="#000000" fill-opacity="0.0" d="m159.22835 135.1354l182.04726 0l0 21.228348l-182.04726 0z" fill-rule="evenodd"/><path fill="#000000" d="m173.61897 154.40416l1.15625 0.15625q-0.1875 1.1875 -0.96875 1.859375q-0.78125 0.671875 -1.921875 0.671875q-1.40625 0 -2.28125 -0.921875q-0.859375 -0.9375 -0.859375 -2.65625q0 -1.125 0.375 -1.96875q0.375 -0.84375 1.125 -1.25q0.765625 -0.421875 1.65625 -0.421875q1.125 0 1.84375 0.578125q0.71875 0.5625 0.921875 1.609375l-1.140625 0.171875q-0.171875 -0.703125 -0.59375 -1.046875q-0.40625 -0.359375 -0.984375 -0.359375q-0.890625 0 -1.453125 0.640625q-0.546875 0.640625 -0.546875 2.0q0 1.40625 0.53125 2.03125q0.546875 0.625 1.40625 0.625q0.6875 0 1.140625 -0.421875q0.46875 -0.421875 0.59375 -1.296875zm2.1484375 2.53125l0 -9.546875l1.171875 0l0 3.421875q0.828125 -0.9375 2.078125 -0.9375q0.765625 0 1.328125 0.296875q0.5625 0.296875 0.8125 0.84375q0.25 0.53125 0.25 1.546875l0 4.375l-1.171875 0l0 -4.375q0 -0.890625 -0.390625 -1.28125q-0.375 -0.40625 -1.078125 -0.40625q-0.515625 0 -0.984375 0.28125q-0.453125 0.265625 -0.65625 0.734375q-0.1875 0.453125 -0.1875 1.265625l0 3.78125l-1.171875 0zm11.928101 -0.859375q-0.65625 0.5625 -1.265625 0.796875q-0.59375 0.21875 -1.28125 0.21875q-1.140625 0 -1.75 -0.546875q-0.609375 -0.5625 -0.609375 -1.4375q0 -0.5 0.21875 -0.921875q0.234375 -0.421875 0.609375 -0.671875q0.375 -0.25 0.84375 -0.390625q0.34375 -0.078125 1.046875 -0.171875q1.421875 -0.171875 2.09375 -0.40625q0 -0.234375 0 -0.296875q0 -0.71875 -0.328125 -1.015625q-0.453125 -0.390625 -1.34375 -0.390625q-0.8125 0 -1.21875 0.296875q-0.390625 0.28125 -0.578125 1.015625l-1.140625 -0.15625q0.15625 -0.734375 0.515625 -1.1875q0.359375 -0.453125 1.03125 -0.6875q0.671875 -0.25 1.5625 -0.25q0.890625 0 1.4375 0.203125q0.5625 0.203125 0.8125 0.53125q0.265625 0.3125 0.375 0.796875q0.046875 0.296875 0.046875 1.078125l0 1.5625q0 1.625 0.078125 2.0625q0.078125 0.4375 0.296875 0.828125l-1.21875 0q-0.1875 -0.359375 -0.234375 -0.859375zm-0.09375 -2.609375q-0.640625 0.265625 -1.921875 0.4375q-0.71875 0.109375 -1.015625 0.25q-0.296875 0.125 -0.46875 0.375q-0.15625 0.25 -0.15625 0.546875q0 0.46875 0.34375 0.78125q0.359375 0.3125 1.046875 0.3125q0.671875 0 1.203125 -0.296875q0.53125 -0.296875 0.78125 -0.8125q0.1875 -0.390625 0.1875 -1.171875l0 -0.421875zm2.9906006 3.46875l0 -6.90625l1.0625 0l0 0.984375q0.75 -1.140625 2.1875 -1.140625q0.625 0 1.15625 0.21875q0.53125 0.21875 0.78125 0.59375q0.265625 0.359375 0.375 0.859375q0.0625 0.328125 0.0625 1.140625l0 4.25l-1.171875 0l0 -4.203125q0 -0.71875 -0.140625 -1.0625q-0.140625 -0.359375 -0.484375 -0.5625q-0.34375 -0.21875 -0.8125 -0.21875q-0.75 0 -1.296875 0.46875q-0.546875 0.46875 -0.546875 1.796875l0 3.78125l-1.171875 0zm7.1937256 0.578125l1.140625 0.15625q0.078125 0.53125 0.40625 0.78125q0.4375 0.3125 1.1875 0.3125q0.8125 0 1.25 -0.328125q0.453125 -0.3125 0.609375 -0.90625q0.09375 -0.359375 0.078125 -1.5q-0.765625 0.90625 -1.90625 0.90625q-1.4375 0 -2.21875 -1.03125q-0.78125 -1.03125 -0.78125 -2.46875q0 -0.984375 0.359375 -1.8125q0.359375 -0.84375 1.03125 -1.296875q0.6875 -0.453125 1.609375 -0.453125q1.21875 0 2.015625 0.984375l0 -0.828125l1.078125 0l0 5.96875q0 1.609375 -0.328125 2.28125q-0.328125 0.6875 -1.046875 1.078125q-0.703125 0.390625 -1.75 0.390625q-1.234375 0 -2.0 -0.5625q-0.75 -0.5625 -0.734375 -1.671875zm0.984375 -4.15625q0 1.359375 0.53125 1.984375q0.546875 0.625 1.359375 0.625q0.796875 0 1.34375 -0.625q0.546875 -0.625 0.546875 -1.953125q0 -1.265625 -0.5625 -1.90625q-0.5625 -0.640625 -1.359375 -0.640625q-0.765625 0 -1.3125 0.640625q-0.546875 0.625 -0.546875 1.875zm11.381226 1.359375l1.203125 0.140625q-0.28125 1.0625 -1.0625 1.65625q-0.765625 0.578125 -1.96875 0.578125q-1.515625 0 -2.40625 -0.9375q-0.890625 -0.9375 -0.890625 -2.609375q0 -1.75 0.890625 -2.703125q0.90625 -0.96875 2.34375 -0.96875q1.390625 0 2.265625 0.9375q0.875 0.9375 0.875 2.65625q0 0.109375 0 0.3125l-5.15625 0q0.0625 1.140625 0.640625 1.75q0.578125 0.59375 1.4375 0.59375q0.65625 0 1.109375 -0.328125q0.453125 -0.34375 0.71875 -1.078125zm-3.84375 -1.90625l3.859375 0q-0.078125 -0.859375 -0.4375 -1.296875q-0.5625 -0.6875 -1.453125 -0.6875q-0.8125 0 -1.359375 0.546875q-0.546875 0.53125 -0.609375 1.4375z" fill-rule="nonzero"/><path fill="#6aa84f" d="m94.161415 175.59473l0 -9.248032l0 0c0 -3.9725342 3.2203827 -7.192917 7.192917 -7.192917l31.90551 0c1.9076843 0 3.7372284 0.75782776 5.086151 2.1067657c1.348938 1.3489227 2.1067657 3.1784668 2.1067657 5.086151l0 1.0275574l2.0551147 0l-4.1102295 4.1102448l-4.1102448 -4.1102448l2.0551147 0l0 -1.0275574c0 -1.7025146 -1.3801575 -3.082672 -3.082672 -3.082672l-31.90551 0l0 0c-1.7025146 0 -3.0826797 1.3801575 -3.0826797 3.082672l0 9.248032z" fill-rule="evenodd"/><path fill="#e06666" d="m269.30054 53.47021l0 0c0 -17.27303 14.002533 -31.275589 31.275574 -31.275589l0 0c8.2948 0 16.249878 3.2950974 22.115173 9.160408c5.865326 5.8653107 9.160431 13.820381 9.160431 22.115181l0 0c0 17.27303 -14.002563 31.275593 -31.275604 31.275593l0 0c-17.27304 0 -31.275574 -14.002563 -31.275574 -31.275593z" fill-rule="evenodd"/><path fill="#000000" d="m298.1848 54.85896l0 5.53125l-1.546875 0l0 -13.3125l3.65625 0q2.453125 0 3.625 0.9375q1.171875 0.9375 1.171875 2.8125q0 2.640625 -2.6875 3.578125l3.625 5.984375l-1.84375 0l-3.21875 -5.53125l-2.78125 0zm0 -1.34375l2.125 0q1.640625 0 2.40625 -0.640625q0.765625 -0.65625 0.765625 -1.953125q0 -1.328125 -0.78125 -1.90625q-0.78125 -0.578125 -2.5 -0.578125l-2.015625 0l0 5.078125z" fill-rule="nonzero"/><path fill="#000000" fill-opacity="0.0" d="m24.494751 214.09433l356.0 0" fill-rule="evenodd"/><path stroke="#000000" stroke-width="1.0" stroke-linejoin="round" stroke-linecap="butt" d="m24.494751 214.09433l350.0 0" fill-rule="evenodd"/><path fill="#000000" stroke="#000000" stroke-width="1.0" stroke-linecap="butt" d="m374.49475 215.74606l4.538086 -1.6517334l-4.538086 -1.6517334z" fill-rule="evenodd"/><path fill="#000000" fill-opacity="0.0" d="m172.76247 207.51164l59.46457 0l0 29.16536l-59.46457 0z" fill-rule="evenodd"/><path fill="#000000" d="m187.76022 233.36914q0.40625 0 0.765625 -0.0625q0.375 -0.0625 0.59375 -0.125l0 1.15625q-0.234375 0.125 -0.71875 0.203125q-0.484375 0.078125 -0.859375 0.078125q-2.890625 0 -2.890625 -3.0625l0 -5.9375l-1.4375 0l0 -0.71875l1.4375 -0.640625l0.625 -2.125l0.875 0l0 2.3125l2.90625 0l0 1.171875l-2.90625 0l0 5.875q0 0.90625 0.421875 1.390625q0.4375 0.484375 1.1875 0.484375zm4.8674164 1.0625l-1.5 0l0 -9.984375l1.5 0l0 9.984375zm-1.640625 -12.6875q0 -0.515625 0.25 -0.75q0.265625 -0.25 0.65625 -0.25q0.359375 0 0.625 0.25q0.265625 0.234375 0.265625 0.75q0 0.515625 -0.265625 0.765625q-0.265625 0.25 -0.625 0.25q-0.390625 0 -0.65625 -0.25q-0.25 -0.25 -0.25 -0.765625zm17.57811 12.6875l0 -6.5q0 -1.1875 -0.515625 -1.78125q-0.5 -0.59375 -1.578125 -0.59375q-1.40625 0 -2.0937653 0.8125q-0.671875 0.796875 -0.671875 2.484375l0 5.578125l-1.5 0l0 -6.5q0 -1.1875 -0.515625 -1.78125q-0.515625 -0.59375 -1.59375 -0.59375q-1.421875 0 -2.09375 0.859375q-0.65625 0.84375 -0.65625 2.78125l0 5.234375l-1.5 0l0 -9.984375l1.21875 0l0.25 1.359375l0.078125 0q0.421875 -0.71875 1.203125 -1.125q0.78125 -0.421875 1.75 -0.421875q2.328125 0 3.0625 1.703125l0.0625 0q0.453125 -0.78125 1.2968903 -1.234375q0.84375 -0.46875 1.9375 -0.46875q1.6875 0 2.53125 0.875q0.84375 0.875 0.84375 2.78125l0 6.515625l-1.515625 0zm8.853592 0.1875q-2.21875 0 -3.5 -1.34375q-1.28125 -1.359375 -1.28125 -3.75q0 -2.421875 1.1875 -3.84375q1.1875 -1.421875 3.1875 -1.421875q1.890625 0 2.96875 1.234375q1.09375 1.234375 1.09375 3.265625l0 0.953125l-6.875 0q0.046875 1.765625 0.890625 2.671875q0.84375 0.90625 2.375 0.90625q1.609375 0 3.1875 -0.671875l0 1.34375q-0.796875 0.34375 -1.515625 0.5q-0.71875 0.15625 -1.71875 0.15625zm-0.421875 -9.09375q-1.203125 0 -1.921875 0.796875q-0.703125 0.78125 -0.828125 2.15625l5.21875 0q0 -1.421875 -0.640625 -2.1875q-0.640625 -0.765625 -1.828125 -0.765625z" fill-rule="nonzero"/><path fill="#000000" fill-opacity="0.0" d="m62.242783 151.99852l0 0c0 2.8766632 9.327988 5.208664 20.834648 5.208664c11.506653 0 20.83464 -2.3320007 20.83464 -5.208664l0 45.015747c0 2.8766785 -9.327988 5.208664 -20.83464 5.208664c-11.50666 0 -20.834648 -2.3319855 -20.834648 -5.208664z" fill-rule="evenodd"/><path fill="#000000" fill-opacity="0.0" d="m62.242783 151.99852l0 0c0 -2.8766632 9.327988 -5.2086487 20.834648 -5.2086487c11.506653 0 20.83464 2.3319855 20.83464 5.2086487l0 0c0 2.8766632 -9.327988 5.208664 -20.83464 5.208664c-11.50666 0 -20.834648 -2.3320007 -20.834648 -5.208664z" fill-rule="evenodd"/><path fill="#000000" fill-opacity="0.0" d="m103.91207 151.99852l0 0c0 2.8766632 -9.327988 5.208664 -20.83464 5.208664c-11.50666 0 -20.834648 -2.3320007 -20.834648 -5.208664l0 0c0 -2.8766632 9.327988 -5.2086487 20.834648 -5.2086487c11.506653 0 20.83464 2.3319855 20.83464 5.2086487l0 45.015747c0 2.8766785 -9.327988 5.208664 -20.83464 5.208664c-11.50666 0 -20.834648 -2.3319855 -20.834648 -5.208664l0 -45.015747" fill-rule="evenodd"/><path fill="#ffffff" fill-opacity="0.4" d="m62.242783 151.99852l0 0c0 -2.8766632 9.327988 -5.2086487 20.834648 -5.2086487c11.506653 0 20.83464 2.3319855 20.83464 5.2086487l0 0c0 2.8766632 -9.327988 5.208664 -20.83464 5.208664c-11.50666 0 -20.834648 -2.3320007 -20.834648 -5.208664z" fill-rule="evenodd"/><path fill="#000000" d="m79.76889 182.56198l0.234375 1.453125q-0.6875 0.140625 -1.234375 0.140625q-0.8906174 0 -1.3906174 -0.28125q-0.484375 -0.28125 -0.6875 -0.734375q-0.203125 -0.46875 -0.203125 -1.9375l0 -5.578125l-1.203125 0l0 -1.265625l1.203125 0l0 -2.390625l1.625 -0.984375l0 3.375l1.6562424 0l0 1.265625l-1.6562424 0l0 5.671875q0 0.6875 0.078125 0.890625q0.09374237 0.203125 0.28124237 0.328125q0.203125 0.109375 0.578125 0.109375q0.265625 0 0.71875 -0.0625z" fill-rule="nonzero"/><path fill="#000000" d="m80.53032 188.35886l0 -1.09375l3.359375 0l0 1.09375l-3.359375 0zm4.2667236 0.328125l1.09375 -0.15625q0.1875 0.9375 0.640625 1.34375q0.453125 0.40625 1.109375 0.40625q0.765625 0 1.296875 -0.53125q0.53125 -0.53125 0.53125 -1.328125q0 -0.75 -0.5 -1.234375q-0.484375 -0.5 -1.234375 -0.5q-0.3125 0 -0.78125 0.125l0.125 -0.953125q0.109375 0.015625 0.171875 0.015625q0.703125 0 1.265625 -0.359375q0.5625 -0.375 0.5625 -1.140625q0 -0.59375 -0.40625 -0.984375q-0.40625 -0.40625 -1.0625 -0.40625q-0.625 0 -1.0625 0.40625q-0.421875 0.40625 -0.546875 1.203125l-1.09375 -0.1875q0.203125 -1.109375 0.90625 -1.703125q0.71875 -0.609375 1.78125 -0.609375q0.71875 0 1.328125 0.3125q0.625 0.3125 0.953125 0.859375q0.328125 0.53125 0.328125 1.140625q0 0.578125 -0.3125 1.0625q-0.3125 0.46875 -0.921875 0.734375q0.796875 0.1875 1.234375 0.765625q0.4375 0.578125 0.4375 1.4375q0 1.15625 -0.859375 1.96875q-0.84375 0.8125 -2.140625 0.8125q-1.171875 0 -1.953125 -0.6875q-0.78125 -0.703125 -0.890625 -1.8125z" fill-rule="nonzero"/><path fill="#000000" fill-opacity="0.0" d="m134.2454 151.99852l0 0c0 2.8766632 9.327988 5.208664 20.83464 5.208664c11.506668 0 20.834656 -2.3320007 20.834656 -5.208664l0 45.015747c0 2.8766785 -9.327988 5.208664 -20.834656 5.208664c-11.506653 0 -20.83464 -2.3319855 -20.83464 -5.208664z" fill-rule="evenodd"/><path fill="#000000" fill-opacity="0.0" d="m134.2454 151.99852l0 0c0 -2.8766632 9.327988 -5.2086487 20.83464 -5.2086487c11.506668 0 20.834656 2.3319855 20.834656 5.2086487l0 0c0 2.8766632 -9.327988 5.208664 -20.834656 5.208664c-11.506653 0 -20.83464 -2.3320007 -20.83464 -5.208664z" fill-rule="evenodd"/><path fill="#000000" fill-opacity="0.0" d="m175.9147 151.99852l0 0c0 2.8766632 -9.327988 5.208664 -20.834656 5.208664c-11.506653 0 -20.83464 -2.3320007 -20.83464 -5.208664l0 0c0 -2.8766632 9.327988 -5.2086487 20.83464 -5.2086487c11.506668 0 20.834656 2.3319855 20.834656 5.2086487l0 45.015747c0 2.8766785 -9.327988 5.208664 -20.834656 5.208664c-11.506653 0 -20.83464 -2.3319855 -20.83464 -5.208664l0 -45.015747" fill-rule="evenodd"/><path fill="#ffffff" fill-opacity="0.4" d="m134.2454 151.99852l0 0c0 -2.8766632 9.327988 -5.2086487 20.83464 -5.2086487c11.506668 0 20.834656 2.3319855 20.834656 5.2086487l0 0c0 2.8766632 -9.327988 5.208664 -20.834656 5.208664c-11.506653 0 -20.83464 -2.3320007 -20.83464 -5.208664z" fill-rule="evenodd"/><path fill="#000000" d="m151.77151 182.56198l0.234375 1.453125q-0.6875 0.140625 -1.234375 0.140625q-0.890625 0 -1.390625 -0.28125q-0.484375 -0.28125 -0.6875 -0.734375q-0.203125 -0.46875 -0.203125 -1.9375l0 -5.578125l-1.203125 0l0 -1.265625l1.203125 0l0 -2.390625l1.625 -0.984375l0 3.375l1.65625 0l0 1.265625l-1.65625 0l0 5.671875q0 0.6875 0.078125 0.890625q0.09375 0.203125 0.28125 0.328125q0.203125 0.109375 0.578125 0.109375q0.265625 0 0.71875 -0.0625z" fill-rule="nonzero"/><path fill="#000000" d="m152.53294 188.35886l0 -1.09375l3.359375 0l0 1.09375l-3.359375 0zm10.016724 1.625l0 1.046875l-5.890625 0q-0.015625 -0.390625 0.125 -0.765625q0.234375 -0.59375 0.71875 -1.171875q0.5 -0.59375 1.4375 -1.359375q1.453125 -1.1875 1.953125 -1.875q0.515625 -0.703125 0.515625 -1.3125q0 -0.65625 -0.46875 -1.09375q-0.453125 -0.453125 -1.203125 -0.453125q-0.796875 0 -1.265625 0.46875q-0.46875 0.46875 -0.484375 1.3125l-1.125 -0.109375q0.125 -1.265625 0.875 -1.921875q0.75 -0.65625 2.015625 -0.65625q1.28125 0 2.03125 0.71875q0.75 0.703125 0.75 1.75q0 0.53125 -0.21875 1.046875q-0.21875 0.515625 -0.734375 1.09375q-0.5 0.5625 -1.671875 1.5625q-0.984375 0.828125 -1.265625 1.125q-0.28125 0.296875 -0.46875 0.59375l4.375 0z" fill-rule="nonzero"/><path fill="#000000" fill-opacity="0.0" d="m206.24803 151.99852l0 0c0 2.8766632 9.327988 5.208664 20.83464 5.208664c11.506668 0 20.834656 -2.3320007 20.834656 -5.208664l0 45.015747c0 2.8766785 -9.327988 5.208664 -20.834656 5.208664c-11.506653 0 -20.83464 -2.3319855 -20.83464 -5.208664z" fill-rule="evenodd"/><path fill="#000000" fill-opacity="0.0" d="m206.24803 151.99852l0 0c0 -2.8766632 9.327988 -5.2086487 20.83464 -5.2086487c11.506668 0 20.834656 2.3319855 20.834656 5.2086487l0 0c0 2.8766632 -9.327988 5.208664 -20.834656 5.208664c-11.506653 0 -20.83464 -2.3320007 -20.83464 -5.208664z" fill-rule="evenodd"/><path fill="#000000" fill-opacity="0.0" d="m247.91733 151.99852l0 0c0 2.8766632 -9.327988 5.208664 -20.834656 5.208664c-11.506653 0 -20.83464 -2.3320007 -20.83464 -5.208664l0 0c0 -2.8766632 9.327988 -5.2086487 20.83464 -5.2086487c11.506668 0 20.834656 2.3319855 20.834656 5.2086487l0 45.015747c0 2.8766785 -9.327988 5.208664 -20.834656 5.208664c-11.506653 0 -20.83464 -2.3319855 -20.83464 -5.208664l0 -45.015747" fill-rule="evenodd"/><path fill="#ffffff" fill-opacity="0.4" d="m206.24803 151.99852l0 0c0 -2.8766632 9.327988 -5.2086487 20.83464 -5.2086487c11.506668 0 20.834656 2.3319855 20.834656 5.2086487l0 0c0 2.8766632 -9.327988 5.208664 -20.834656 5.208664c-11.506653 0 -20.83464 -2.3320007 -20.83464 -5.208664z" fill-rule="evenodd"/><path fill="#000000" d="m223.77414 182.56198l0.234375 1.453125q-0.6875 0.140625 -1.234375 0.140625q-0.890625 0 -1.390625 -0.28125q-0.484375 -0.28125 -0.6875 -0.734375q-0.203125 -0.46875 -0.203125 -1.9375l0 -5.578125l-1.203125 0l0 -1.265625l1.203125 0l0 -2.390625l1.625 -0.984375l0 3.375l1.65625 0l0 1.265625l-1.65625 0l0 5.671875q0 0.6875 0.078125 0.890625q0.09375 0.203125 0.28125 0.328125q0.203125 0.109375 0.578125 0.109375q0.265625 0 0.71875 -0.0625z" fill-rule="nonzero"/><path fill="#000000" d="m224.53557 188.35886l0 -1.09375l3.359375 0l0 1.09375l-3.359375 0zm8.391724 2.671875l-1.09375 0l0 -6.96875q-0.40625 0.375 -1.046875 0.75q-0.640625 0.375 -1.140625 0.578125l0 -1.0625q0.90625 -0.4375 1.59375 -1.046875q0.6875 -0.609375 0.96875 -1.1875l0.71875 0l0 8.9375z" fill-rule="nonzero"/><path fill="#000000" fill-opacity="0.0" d="m278.25067 151.99852l0 0c0 2.8766632 9.327972 5.208664 20.834625 5.208664c11.506653 0 20.834656 -2.3320007 20.834656 -5.208664l0 45.015747c0 2.8766785 -9.328003 5.208664 -20.834656 5.208664c-11.506653 0 -20.834625 -2.3319855 -20.834625 -5.208664z" fill-rule="evenodd"/><path fill="#000000" fill-opacity="0.0" d="m278.25067 151.99852l0 0c0 -2.8766632 9.327972 -5.2086487 20.834625 -5.2086487c11.506653 0 20.834656 2.3319855 20.834656 5.2086487l0 0c0 2.8766632 -9.328003 5.208664 -20.834656 5.208664c-11.506653 0 -20.834625 -2.3320007 -20.834625 -5.208664z" fill-rule="evenodd"/><path fill="#000000" fill-opacity="0.0" d="m319.91995 151.99852l0 0c0 2.8766632 -9.328003 5.208664 -20.834656 5.208664c-11.506653 0 -20.834625 -2.3320007 -20.834625 -5.208664l0 0c0 -2.8766632 9.327972 -5.2086487 20.834625 -5.2086487c11.506653 0 20.834656 2.3319855 20.834656 5.2086487l0 45.015747c0 2.8766785 -9.328003 5.208664 -20.834656 5.208664c-11.506653 0 -20.834625 -2.3319855 -20.834625 -5.208664l0 -45.015747" fill-rule="evenodd"/><path fill="#ffffff" fill-opacity="0.4" d="m278.25067 151.99852l0 0c0 -2.8766632 9.327972 -5.2086487 20.834625 -5.2086487c11.506653 0 20.834656 2.3319855 20.834656 5.2086487l0 0c0 2.8766632 -9.328003 5.208664 -20.834656 5.208664c-11.506653 0 -20.834625 -2.3320007 -20.834625 -5.208664z" fill-rule="evenodd"/><path fill="#000000" d="m297.84763 182.56198l0.234375 1.453125q-0.6875 0.140625 -1.234375 0.140625q-0.890625 0 -1.390625 -0.28125q-0.484375 -0.28125 -0.6875 -0.734375q-0.203125 -0.46875 -0.203125 -1.9375l0 -5.578125l-1.203125 0l0 -1.265625l1.203125 0l0 -2.390625l1.625 -0.984375l0 3.375l1.65625 0l0 1.265625l-1.65625 0l0 5.671875q0 0.6875 0.078125 0.890625q0.09375 0.203125 0.28125 0.328125q0.203125 0.109375 0.578125 0.109375q0.265625 0 0.71875 -0.0625z" fill-rule="nonzero"/><path fill="#000000" d="m298.73407 186.6401q0 -1.578125 0.328125 -2.53125q0.328125 -0.96875 0.96875 -1.484375q0.640625 -0.53125 1.609375 -0.53125q0.71875 0 1.25 0.296875q0.546875 0.28125 0.890625 0.828125q0.359375 0.53125 0.5625 1.3125q0.203125 0.78125 0.203125 2.109375q0 1.5625 -0.328125 2.53125q-0.328125 0.953125 -0.96875 1.484375q-0.640625 0.53125 -1.609375 0.53125q-1.296875 0 -2.03125 -0.921875q-0.875 -1.109375 -0.875 -3.625zm1.125 0q0 2.1875 0.515625 2.921875q0.515625 0.71875 1.265625 0.71875q0.75 0 1.265625 -0.71875q0.515625 -0.734375 0.515625 -2.921875q0 -2.203125 -0.515625 -2.921875q-0.515625 -0.71875 -1.28125 -0.71875q-0.75 0 -1.203125 0.640625q-0.5625 0.8125 -0.5625 3.0z" fill-rule="nonzero"/><path fill="#980000" d="m294.93832 94.98672l5.637787 -5.6377945l5.637787 5.6377945l-2.8188782 0l0 47.338585l-5.637787 0l0 -47.338585z" fill-rule="evenodd"/><path fill="#ffd966" d="m195.80708 53.47021l0 0c0 -17.27303 14.002563 -31.275589 31.275589 -31.275589l0 0c8.2948 0 16.249878 3.2950974 22.115189 9.160408c5.8653107 5.8653107 9.160416 13.820381 9.160416 22.115181l0 0c0 17.27303 -14.002563 31.275593 -31.275604 31.275593l0 0c-17.273026 0 -31.275589 -14.002563 -31.275589 -31.275593z" fill-rule="evenodd"/><path fill="#000000" d="m219.13466 54.85896l0 5.53125l-1.546875 0l0 -13.3125l3.65625 0q2.453125 0 3.625 0.9375q1.171875 0.9375 1.171875 2.8125q0 2.640625 -2.6875 3.578125l3.625 5.984375l-1.84375 0l-3.21875 -5.53125l-2.78125 0zm0 -1.34375l2.125 0q1.640625 0 2.40625 -0.640625q0.765625 -0.65625 0.765625 -1.953125q0 -1.328125 -0.78125 -1.90625q-0.78125 -0.578125 -2.5 -0.578125l-2.015625 0l0 5.078125z" fill-rule="nonzero"/><path fill="#000000" d="m227.8079 64.515205l0 -0.9218712l2.96875 0l0 0.9218712l-2.96875 0zm7.8301697 2.875l-0.984375 0l0 -6.328121q0 -0.796875 0.046875 -1.5q-0.125 0.140625 -0.28125 0.28125q-0.15625 0.125 -1.453125 1.171875l-0.53125 -0.6875l2.34375 -1.8125l0.859375 0l0 8.874996z" fill-rule="nonzero"/><path fill="#ffd966" d="m122.31365 53.47021l0 0c0 -17.27303 14.002556 -31.275589 31.275581 -31.275589l0 0c8.294815 0 16.249878 3.2950974 22.115189 9.160408c5.8653107 5.8653107 9.1604 13.820381 9.1604 22.115181l0 0c0 17.27303 -14.002548 31.275593 -31.275589 31.275593l0 0c-17.273026 0 -31.275581 -14.002563 -31.275581 -31.275593z" fill-rule="evenodd"/><path fill="#000000" d="m145.64122 54.85896l0 5.53125l-1.546875 0l0 -13.3125l3.65625 0q2.453125 0 3.625 0.9375q1.171875 0.9375 1.171875 2.8125q0 2.640625 -2.6875 3.578125l3.625 5.984375l-1.84375 0l-3.21875 -5.53125l-2.78125 0zm0 -1.34375l2.125 0q1.640625 0 2.40625 -0.640625q0.765625 -0.65625 0.765625 -1.953125q0 -1.328125 -0.78125 -1.90625q-0.78125 -0.578125 -2.5 -0.578125l-2.015625 0l0 5.078125z" fill-rule="nonzero"/><path fill="#000000" d="m154.31447 64.515205l0 -0.9218712l2.96875 0l0 0.9218712l-2.96875 0zm9.92392 2.875l-5.828125 0l0 -0.875l2.34375 -2.34375q1.0625 -1.0781212 1.390625 -1.5312462q0.34375 -0.46875 0.515625 -0.90625q0.171875 -0.4375 0.171875 -0.9375q0 -0.71875 -0.4375 -1.125q-0.421875 -0.421875 -1.1875 -0.421875q-0.546875 0 -1.046875 0.1875q-0.5 0.171875 -1.109375 0.65625l-0.53125 -0.6875q1.234375 -1.015625 2.671875 -1.015625q1.25 0 1.953125 0.640625q0.71875 0.640625 0.71875 1.71875q0 0.84375 -0.46875 1.671875q-0.46875 0.828125 -1.78125 2.0781212l-1.9375 1.90625l0 0.046875l4.5625 0l0 0.9375z" fill-rule="nonzero"/><path fill="#ffd966" d="m51.801838 55.947903l0 0c0 -17.273033 14.00256 -31.27559 31.275593 -31.27559l0 0c8.2948 0 16.24987 3.2950974 22.115181 9.16041c5.8653107 5.8653107 9.160408 13.820377 9.160408 22.115181l0 0c0 17.27303 -14.002563 31.275593 -31.275589 31.275593l0 0c-17.273033 0 -31.275593 -14.002563 -31.275593 -31.275593z" fill-rule="evenodd"/><path fill="#000000" d="m75.12941 57.33665l0 5.53125l-1.546875 0l0 -13.3125l3.65625 0q2.453125 0 3.625 0.9375q1.171875 0.9375 1.171875 2.8125q0 2.640625 -2.6875 3.578125l3.625 5.984375l-1.84375 0l-3.21875 -5.53125l-2.78125 0zm0 -1.34375l2.125 0q1.640625 0 2.40625 -0.640625q0.765625 -0.65625 0.765625 -1.953125q0 -1.328125 -0.78125 -1.90625q-0.78125 -0.578125 -2.5 -0.578125l-2.015625 0l0 5.078125z" fill-rule="nonzero"/><path fill="#000000" d="m83.80266 66.9929l0 -0.921875l2.96875 0l0 0.921875l-2.96875 0zm9.595787 -3.9218712q0 0.859375 -0.48436737 1.4062462q-0.46875 0.53125 -1.34375 0.71875l0 0.046875q1.0625 0.125 1.5781174 0.671875q0.515625 0.546875 0.515625 1.4375q0 1.265625 -0.8749924 1.953125q-0.875 0.6875 -2.5 0.6875q-0.703125 0 -1.296875 -0.109375q-0.578125 -0.109375 -1.125 -0.375l0 -0.953125q0.5625 0.28125 1.21875 0.4375q0.65625 0.140625 1.234375 0.140625q2.3125 0 2.3125 -1.796875q0 -1.625 -2.546875 -1.625l-0.875 0l0 -0.859375l0.890625 0q1.03125 0 1.640625 -0.453125q0.609375 -0.4687462 0.609375 -1.2812462q0 -0.65625 -0.453125 -1.015625q-0.4375 -0.375 -1.203125 -0.375q-0.578125 0 -1.09375 0.15625q-0.515625 0.15625 -1.1875 0.578125l-0.5 -0.671875q0.546875 -0.4375 1.25 -0.671875q0.71875 -0.25 1.5 -0.25q1.296875 0 2.015625 0.59375q0.7187424 0.578125 0.7187424 1.609375z" fill-rule="nonzero"/><path fill="#ffd966" d="m221.44489 94.91716l5.637787 -5.6377945l5.637802 5.6377945l-2.8188934 0l0 47.338577l-5.637802 0l0 -47.338577z" fill-rule="evenodd"/><path fill="#ffd966" d="m147.95145 94.91716l5.637787 -5.6377945l5.637802 5.6377945l-2.8188934 0l0 47.338577l-5.637802 0l0 -47.338577z" fill-rule="evenodd"/><path fill="#ffd966" d="m77.43964 96.156006l5.6377945 -5.6377945l5.6377945 5.6377945l-2.818901 0l0 47.338577l-5.6377945 0l0 -47.338577z" fill-rule="evenodd"/><path fill="#000000" fill-opacity="0.0" d="m86.16273 135.1354l182.04724 0l0 21.228348l-182.04724 0z" fill-rule="evenodd"/><path fill="#000000" d="m100.55335 154.40416l1.15625 0.15625q-0.1875 1.1875 -0.96875 1.859375q-0.78125 0.671875 -1.921875 0.671875q-1.40625 0 -2.28125 -0.921875q-0.859375 -0.9375 -0.859375 -2.65625q0 -1.125 0.375 -1.96875q0.375 -0.84375 1.125 -1.25q0.765625 -0.421875 1.65625 -0.421875q1.125 0 1.84375 0.578125q0.71875 0.5625 0.921875 1.609375l-1.140625 0.171875q-0.171875 -0.703125 -0.59375 -1.046875q-0.40625 -0.359375 -0.984375 -0.359375q-0.890625 0 -1.453125 0.640625q-0.546875 0.640625 -0.546875 2.0q0 1.40625 0.53125 2.03125q0.546875 0.625 1.40625 0.625q0.6875 0 1.140625 -0.421875q0.46875 -0.421875 0.59375 -1.296875zm2.1484375 2.53125l0 -9.546875l1.171875 0l0 3.421875q0.828125 -0.9375 2.078125 -0.9375q0.765625 0 1.328125 0.296875q0.5625 0.296875 0.8125 0.84375q0.25 0.53125 0.25 1.546875l0 4.375l-1.171875 0l0 -4.375q0 -0.890625 -0.390625 -1.28125q-0.375 -0.40625 -1.078125 -0.40625q-0.515625 0 -0.984375 0.28125q-0.453125 0.265625 -0.65625 0.734375q-0.1875 0.453125 -0.1875 1.265625l0 3.78125l-1.171875 0zm11.928101 -0.859375q-0.65625 0.5625 -1.265625 0.796875q-0.59375 0.21875 -1.28125 0.21875q-1.140625 0 -1.75 -0.546875q-0.609375 -0.5625 -0.609375 -1.4375q0 -0.5 0.21875 -0.921875q0.234375 -0.421875 0.609375 -0.671875q0.375 -0.25 0.84375 -0.390625q0.34375 -0.078125 1.046875 -0.171875q1.421875 -0.171875 2.09375 -0.40625q0 -0.234375 0 -0.296875q0 -0.71875 -0.328125 -1.015625q-0.453125 -0.390625 -1.34375 -0.390625q-0.8125 0 -1.21875 0.296875q-0.390625 0.28125 -0.578125 1.015625l-1.140625 -0.15625q0.15625 -0.734375 0.515625 -1.1875q0.359375 -0.453125 1.03125 -0.6875q0.671875 -0.25 1.5625 -0.25q0.890625 0 1.4375 0.203125q0.5625 0.203125 0.8125 0.53125q0.265625 0.3125 0.375 0.796875q0.046875 0.296875 0.046875 1.078125l0 1.5625q0 1.625 0.078125 2.0625q0.078125 0.4375 0.296875 0.828125l-1.21875 0q-0.1875 -0.359375 -0.234375 -0.859375zm-0.09375 -2.609375q-0.640625 0.265625 -1.921875 0.4375q-0.71875 0.109375 -1.015625 0.25q-0.296875 0.125 -0.46875 0.375q-0.15625 0.25 -0.15625 0.546875q0 0.46875 0.34375 0.78125q0.359375 0.3125 1.046875 0.3125q0.671875 0 1.203125 -0.296875q0.53125 -0.296875 0.78125 -0.8125q0.1875 -0.390625 0.1875 -1.171875l0 -0.421875zm2.9906006 3.46875l0 -6.90625l1.0625 0l0 0.984375q0.75 -1.140625 2.1875 -1.140625q0.625 0 1.15625 0.21875q0.53125 0.21875 0.78125 0.59375q0.265625 0.359375 0.375 0.859375q0.0625 0.328125 0.0625 1.140625l0 4.25l-1.171875 0l0 -4.203125q0 -0.71875 -0.140625 -1.0625q-0.140625 -0.359375 -0.484375 -0.5625q-0.34375 -0.21875 -0.8125 -0.21875q-0.75 0 -1.296875 0.46875q-0.546875 0.46875 -0.546875 1.796875l0 3.78125l-1.171875 0zm7.1937256 0.578125l1.140625 0.15625q0.078125 0.53125 0.40625 0.78125q0.4375 0.3125 1.1875 0.3125q0.8125076 0 1.2500076 -0.328125q0.453125 -0.3125 0.609375 -0.90625q0.09375 -0.359375 0.078125 -1.5q-0.765625 0.90625 -1.9062576 0.90625q-1.4375 0 -2.21875 -1.03125q-0.78125 -1.03125 -0.78125 -2.46875q0 -0.984375 0.359375 -1.8125q0.359375 -0.84375 1.03125 -1.296875q0.6875 -0.453125 1.609375 -0.453125q1.2187576 0 2.0156326 0.984375l0 -0.828125l1.078125 0l0 5.96875q0 1.609375 -0.328125 2.28125q-0.328125 0.6875 -1.046875 1.078125q-0.703125 0.390625 -1.7500076 0.390625q-1.234375 0 -2.0 -0.5625q-0.75 -0.5625 -0.734375 -1.671875zm0.984375 -4.15625q0 1.359375 0.53125 1.984375q0.546875 0.625 1.359375 0.625q0.7968826 0 1.3437576 -0.625q0.546875 -0.625 0.546875 -1.953125q0 -1.265625 -0.5625 -1.90625q-0.5625 -0.640625 -1.3593826 -0.640625q-0.765625 0 -1.3125 0.640625q-0.546875 0.625 -0.546875 1.875zm11.381233 1.359375l1.203125 0.140625q-0.28125 1.0625 -1.0625 1.65625q-0.765625 0.578125 -1.96875 0.578125q-1.515625 0 -2.40625 -0.9375q-0.890625 -0.9375 -0.890625 -2.609375q0 -1.75 0.890625 -2.703125q0.90625 -0.96875 2.34375 -0.96875q1.390625 0 2.265625 0.9375q0.875 0.9375 0.875 2.65625q0 0.109375 0 0.3125l-5.15625 0q0.0625 1.140625 0.640625 1.75q0.578125 0.59375 1.4375 0.59375q0.65625 0 1.109375 -0.328125q0.453125 -0.34375 0.71875 -1.078125zm-3.84375 -1.90625l3.859375 0q-0.078125 -0.859375 -0.4375 -1.296875q-0.5625 -0.6875 -1.453125 -0.6875q-0.8125 0 -1.359375 0.546875q-0.546875 0.53125 -0.609375 1.4375z" fill-rule="nonzero"/></g></svg>